<?xml version="1.0" encoding="UTF-8" standalone="no"?>
<svg
   width="1024"
   height="1024"
   viewBox="0 0 1024 1024"
   version="1.1"
   id="svg2713"
   sodipodi:docname="congratulations_ori.svg"
   inkscape:version="1.2.2 (b0a8486541, 2022-12-01)"
   xmlns:inkscape="http://www.inkscape.org/namespaces/inkscape"
   xmlns:sodipodi="http://sodipodi.sourceforge.net/DTD/sodipodi-0.dtd"
   xmlns="http://www.w3.org/2000/svg"
   xmlns:svg="http://www.w3.org/2000/svg">
  <sodipodi:namedview
     id="namedview2715"
     pagecolor="#ffffff"
     bordercolor="#000000"
     borderopacity="0.25"
     inkscape:showpageshadow="2"
     inkscape:pageopacity="0.0"
     inkscape:pagecheckerboard="0"
     inkscape:deskcolor="#d1d1d1"
     showgrid="false"
     inkscape:zoom="0.80761719"
     inkscape:cx="511.38089"
     inkscape:cy="512.61911"
     inkscape:window-width="1854"
     inkscape:window-height="1009"
     inkscape:window-x="66"
     inkscape:window-y="32"
     inkscape:window-maximized="1"
     inkscape:current-layer="svg2713" />
  <path
     fill="#5B309B"
     d="M376.947 473.846C375.408 464.329 374.661 448.673 374.209 438.764C372.599 406.939 373.187 375.041 375.968 343.296C376.547 336.807 380.725 278.303 392.108 282.5C421.429 293.312 452.852 328.121 470.177 353.356C475.411 351.452 483.075 350.094 488.666 349.061C518.278 343.588 544.992 346.572 574.039 353.962C578.147 348.933 582.219 343.102 586.475 337.831C596.587 325.271 607.687 313.539 619.668 302.747C626.6 296.594 644.11 282.405 653.69 283.192C661.555 283.837 664.822 310.465 665.7 317.389C670.715 356.922 672.443 397.212 670.924 437.04C670.493 448.083 670.2 460.812 668.519 471.478C675.204 470.621 678.496 470.206 685.157 470.824C679.667 472.446 673.434 473.602 667.778 474.818C667.1 479.191 666.209 482.514 665.088 486.764C667.818 487.202 673.819 488.069 675.632 490.054L675.135 490.628C671.907 491.205 667.259 490.544 664.047 489.839C662.689 493.407 660.453 499.948 658.088 502.809C661.258 503.365 663.577 504.463 666.567 505.587C683.154 489.309 702.195 457.897 726.053 457.244C752.116 456.532 753.297 484.066 743.546 501.774C729.308 527.632 712.24 547.343 694.219 570.023L663.802 608.796C659.504 614.174 644.027 632.673 643.298 638.587C640.775 659.062 647.409 687.123 649.112 707.844C650.046 719.197 650.327 730.692 650.625 741.404C665.265 741.462 678.559 737.623 689.366 727.502C717.035 701.855 700.723 667.13 701.451 634.416C701.997 609.908 717.961 572.602 747.683 572.824C752.119 572.857 757.698 576.031 760.377 579.618C774.926 599.095 749.264 615.762 743.129 632.671C740.392 640.532 738.29 652.411 739.35 660.758C743.943 696.905 749.956 723.704 717.266 750.164C698.144 765.361 673.827 772.457 649.533 769.93C647.955 794.823 641.671 835.246 623.974 853.892C618.288 859.883 611.102 863.072 602.574 863.101C583.069 863.222 585.419 837.627 580.643 824.431C573.331 804.232 562.279 801.415 542.477 801.259L527.145 801.061C496.15 800.791 494.073 818.852 490.3 844.849C488.323 858.475 484.168 867.809 467.959 867.329C449.877 866.793 439.733 847.175 433.515 832.615C417.514 795.144 409.871 751.925 413.357 711.243C415.269 687.541 421.804 665.158 423.61 641.689C418.021 637.007 410.376 635.796 403.368 633.372C373.083 622.897 347.582 611.364 329.946 583.049C360.443 592.686 394.705 577.335 382.327 540.548C401.279 554.293 418.968 562.806 440.854 550.058C436.886 547.603 429.472 544.25 424.909 541.687C408.742 532.606 400.345 523.482 389.35 509.289C383.487 511.65 379.686 512.846 373.453 513.913C378.009 510.674 382.01 508.38 387.323 506.679C385.272 502.578 383.392 497.788 381.607 493.518C376.033 494.318 369.649 495.122 364.062 495.167C369.424 493.127 374.86 492.017 380.443 490.831C379.32 486.727 377.952 481.388 377.319 477.237C371.6 476.383 365.928 475.575 360.248 474.485C365.089 473.787 372.169 473.288 376.947 473.846ZM664.786 507.949C662.199 507.185 659.684 506.019 657.194 504.956C648.211 517.916 643.078 524.593 630.426 534.958C625.631 538.888 607.622 547.728 606.767 550.459C608.532 555.754 617.776 549.059 620.758 547.161C637.375 536.586 651.676 522.536 664.786 507.949ZM593.277 551.01C596.252 550.034 598.902 549.345 601.575 547.723C601.909 546.76 601.909 547.149 601.86 546.593C599.523 547.335 594.54 548.603 593.188 550.504L593.277 551.01Z"
     id="path2321" />
  <path
     fill="#FEFEFE"
     d="M586.535 402.219C608.094 399.611 627.681 414.986 630.268 436.549C632.854 458.111 617.458 477.682 595.893 480.246C574.36 482.807 554.823 467.438 552.241 445.907C549.658 424.376 565.006 404.824 586.535 402.219Z"
     id="path2323" />
  <path
     fill="#5B309B"
     d="M584.783 413.237C599.727 410.613 613.958 420.636 616.522 435.591C619.085 450.546 609.004 464.736 594.039 467.239C579.159 469.727 565.068 459.716 562.52 444.847C559.971 429.978 569.924 415.846 584.783 413.237Z"
     id="path2325" />
  <path
     fill="#FEFEFE"
     d="M598.7 419.263C602.667 418.686 606.359 421.409 606.98 425.369C607.601 429.33 604.919 433.052 600.966 433.716C598.369 434.153 595.739 433.16 594.078 431.118C592.417 429.075 591.981 426.297 592.938 423.844C593.894 421.392 596.095 419.642 598.7 419.263Z"
     id="path2327" />
  <path
     fill="#FEFEFE"
     d="M450.252 401.605C485.653 398.755 505.308 438.294 487.049 467.071C481.515 475.792 471.046 479.799 461.143 481.457C452.582 481.351 445.109 479.641 437.769 475.071C427.705 468.724 420.622 458.592 418.119 446.96C412.764 422.509 426.976 406.385 450.252 401.605Z"
     id="path2329" />
  <path
     fill="#5B309B"
     d="M454.589 413.175C469.521 411.319 483.128 421.929 484.969 436.863C486.811 451.798 476.188 465.394 461.252 467.221C446.335 469.046 432.761 458.441 430.922 443.526C429.084 428.612 439.676 415.027 454.589 413.175Z"
     id="path2331" />
  <path
     fill="#FEFEFE"
     d="M466.035 419.773C468.622 419.146 471.346 419.963 473.161 421.911C474.975 423.858 475.598 426.634 474.789 429.17C473.98 431.706 471.866 433.608 469.259 434.146C465.323 434.958 461.463 432.465 460.583 428.544C459.704 424.623 462.13 420.72 466.035 419.773Z"
     id="path2333" />
  <path
     fill="#F2E4F4"
     d="M617.772 347.336C621.706 337.58 640.406 301.809 650.008 299.597C654.338 301.496 654.656 317.951 654.8 322.641C655.515 345.951 657.202 375.087 650.348 397.529C646.401 393.316 642.281 389.015 638.417 384.743C640.038 383.583 641.808 382.368 643.364 381.144C638.163 381.228 632.266 381.189 627.128 381.521C630.537 379.204 640.848 375.881 645.294 374.264C638.727 375.314 632.19 376.544 625.69 377.951C630.127 374.054 634.543 370.901 639.294 367.415C630.628 370.153 624.199 373.434 616.063 377.302C622.934 370.463 629.413 367.217 635.379 359.591C632.047 361.728 626.528 365.49 623.196 367.261L622.018 363.265L622.001 363.053L621.332 362.063C617.667 364.211 613.33 368.312 610.105 371.237C612.113 367.024 615.504 361.642 617.94 357.525L617.133 357.293C615.879 357.448 615.968 357.423 614.827 356.852L614.505 355.786C615.077 352.853 616.691 351.06 618.729 348.954C617.694 348.163 618.063 348.656 617.772 347.336Z"
     id="path2335" />
  <path
     fill="#D4A9E7"
     d="M633.384 339C629.035 345.898 622.634 350.95 617.94 357.525L617.133 357.293C620.503 351.156 627.955 343.467 633.384 339Z"
     id="path2337" />
  <path
     fill="#C497E1"
     d="M621.332 362.063C624.069 359.558 630.576 353.467 633.59 352.182C631.399 355.208 625.094 360.417 622.001 363.053L621.332 362.063Z"
     id="path2339" />
  <path
     fill="#C497E1"
     d="M617.772 347.336C621.659 346.027 625.684 339.961 629.581 338.164L629.904 338.462C627.853 341.193 621.47 346.663 618.729 348.954C617.694 348.163 618.063 348.656 617.772 347.336Z"
     id="path2341" />
  <path
     fill="#DDBDEA"
     d="M642.208 312.906L642.606 312.983L642.694 313.586C640.909 315.874 639.056 317.426 636.923 319.374L636.369 319.397L636.238 318.817C638.066 316.338 639.901 314.923 642.208 312.906Z"
     id="path2343" />
  <path
     fill="#F2E4F4"
     d="M394.91 396.124C394.71 395.339 394.525 394.55 394.356 393.758C390.877 377.901 386.403 311.456 393.34 300.583C401.028 295.951 416.694 325.974 419.736 332.274L420.334 333.007C421.408 335.051 423.181 338.667 424.34 340.51L425.03 342.157L427.78 347.863C429.481 351.114 430.891 352.852 430.361 356.47C430.114 356.837 429.523 357.76 429.264 358.068C427.175 358.208 426.106 359.459 424.754 360.987L424.063 361.553L422.341 363.864C421.001 364.987 420.987 365.196 419.228 365.385C417.685 364.71 416.765 364.072 415.152 364.402C416.504 366.262 416.555 365.875 417.255 368.107C416.43 371.417 414.001 370.793 411.245 370.251L411.719 370.968L411.357 370.301L412.191 370.505L412.153 371.352C415.768 374.426 419.325 377.567 422.824 380.771C415.124 378.512 407.753 375.831 399.942 374.071C403.827 376.264 407.93 378.241 411.943 380.517C409.579 381.355 408.693 381.34 407.41 383.372C404.229 388.408 399.373 392.462 394.91 396.124Z"
     id="path2345" />
  <path
     fill="#D4A9E7"
     d="M427.78 347.863C429.481 351.114 430.891 352.852 430.361 356.47C430.114 356.837 429.523 357.76 429.264 358.068C427.175 358.208 426.106 359.459 424.754 360.987L424.063 361.553C422.853 360.776 419.657 359.767 418.162 359.241C421.272 355.926 424.82 351.42 427.78 347.863Z"
     id="path2347" />
  <path
     fill="#C497E1"
     d="M424.34 340.51L425.03 342.157C420.907 346.678 417.917 349.358 413.051 353.017C416.035 349.266 420.849 343.662 424.34 340.51Z"
     id="path2349" />
  <path
     fill="#B07FD2"
     d="M419.736 332.274L420.334 333.007C417.964 336.305 414.595 339.309 411.519 341.918C411.792 340.079 418.231 333.774 419.736 332.274Z"
     id="path2351" />
  <path
     fill="#B07FD2"
     d="M411.592 321.957C412.205 324.176 407.308 328.949 405.804 330.636L405.599 329.822C406.224 327.118 409.634 323.95 411.592 321.957Z"
     id="path2353" />
  <path
     fill="#D4A9E7"
     d="M406.923 315.561C406.991 315.788 407.059 316.014 407.126 316.24C405.972 318.86 404.38 320.587 402.582 322.782L402.119 322.252C402.629 319.953 405.278 317.304 406.923 315.561Z"
     id="path2355" />
  <path
     fill="#FEFEFE"
     d="M526.15 481.563C539.354 499.726 545.279 481.167 551.328 481.319L551.649 482.41C550.997 485.969 548.663 487.933 546.195 490.519C545.487 501.976 543.23 530.583 524.284 529.576C514.297 529.045 506.455 514.12 504.731 505.52C503.857 501.157 503.114 496.106 502.506 491.332C499.936 488.887 497.678 487.013 496.573 483.566C496.805 481.828 496.384 482.385 497.396 481.479C500.768 483.111 503.726 487.012 507.635 488.984C514.558 492.475 519.435 488.427 522.616 481.941C524.03 481.718 524.681 481.632 526.15 481.563Z"
     id="path2357" />
  <path
     fill="#DDBDEA"
     d="M524.641 487.61C531.832 492.916 533.836 493.334 542.585 492.412C541.951 497.458 541.388 501.652 540.397 506.674C537.364 514.272 533.063 529.256 521.441 524.174C516.095 521.836 511.708 513.336 509.666 508.042C508.237 503.131 507.688 498.804 507.357 493.724C516.019 493.769 517.801 492.619 524.641 487.61Z"
     id="path2359" />
  <path
     fill="#5B309B"
     d="M524.641 487.61C531.832 492.916 533.836 493.334 542.585 492.412C541.951 497.458 541.388 501.652 540.397 506.674C527.818 502.413 521.638 500.739 509.666 508.042C508.237 503.131 507.688 498.804 507.357 493.724C516.019 493.769 517.801 492.619 524.641 487.61Z"
     id="path2361" />
  <path
     fill="#F2E4F4"
     d="M709.217 488.078C714.393 487.573 718.981 488.142 722.386 492.573C724.282 495 725.084 498.106 724.603 501.148C723.821 505.797 721.349 507.71 717.8 510.143C712.209 512.485 700.204 501.488 702.874 494.713C704.553 490.452 705.584 490.252 709.217 488.078Z"
     id="path2363" />
  <path
     fill="#DDBDEA"
     d="M522.616 481.941C520.282 480.113 513.332 474.845 513.335 472.06C513.343 465.4 531.888 466.37 534.367 470.115C536.518 473.362 528.061 479.524 526.15 481.563C524.681 481.632 524.03 481.718 522.616 481.941Z"
     id="path2365" />
  <path
     fill="#FEFEFE"
     d="M729.975 470.417C740.454 471.659 734.737 479.391 729.375 483.1C718.722 482.542 724.624 474.126 729.975 470.417Z"
     id="path2367" />
  <path
     fill="#F2E4F4"
     d="M712.019 469.31C721.443 470.055 716.678 476.982 712.487 480.888C710.487 480.931 710.577 480.976 708.744 480.224C705.328 476.406 709.294 472.258 712.019 469.31Z"
     id="path2369" />
  <path
     fill="#F2E4F4"
     d="M735.696 486.873C744.203 487.44 740.639 493.94 736.066 497.398C733.835 497.385 733.912 497.468 731.969 496.461C729.158 492.486 732.683 489.291 735.696 486.873Z"
     id="path2371" />
  <path
     fill="#F2E4F4"
     d="M480.157 793.867C483.24 793.938 501.292 797.198 503.281 799.205C494.886 800.325 487.056 798.98 480.157 793.867Z"
     id="path2373" />
  <path
     fill="#F2E4F4"
     d="M422.341 363.864C427.357 363.037 430.97 369.702 431.745 373.866C428.402 372.248 423.473 369.511 422.028 365.998C422.105 365.434 422.217 364.383 422.341 363.864Z"
     id="path2375" />
  <path
     fill="#F2E4F4"
     d="M584.327 793.065C584.913 793.073 584.554 793.014 585.33 793.494L585.059 794.4C581.247 797.266 575.26 798.6 570.597 799.32C569.825 799.201 570.008 799.165 569.281 798.643L569.759 797.795C573.55 795.623 580.037 794.15 584.327 793.065Z"
     id="path2377" />
  <path
     fill="#F2E4F4"
     d="M424.754 360.987C426.106 359.459 427.175 358.208 429.264 358.068C431.324 363.14 433.459 368.182 435.669 373.19C432.299 369.187 428.529 364.546 424.754 360.987Z"
     id="path2379" />
  <path
     fill="#FEFEFE"
     d="M635.647 610.869C638.054 614.405 637.561 627.774 637.307 632.094C633.363 628.368 635.213 616.2 635.647 610.869Z"
     id="path2381" />
  <path
     fill="#DDBDEA"
     d="M397.367 469.625C405.173 469.451 413.253 472.081 419.311 477.05C415.271 476.407 401.449 471.299 397.367 469.625Z"
     id="path2383" />
  <path
     fill="#FEFEFE"
     d="M617.159 838.79L617.812 839.422C619.558 844.996 618.035 850.579 615.443 855.629L614.956 855.658C613.746 853.465 616.507 841.645 617.159 838.79Z"
     id="path2385" />
  <path
     fill="#FEFEFE"
     d="M476.127 843.786C478.829 846.302 478.967 858.075 478.89 861.9C475.387 855.379 474.824 850.99 476.127 843.786Z"
     id="path2387" />
  <path
     fill="#FEFEFE"
     d="M456.122 845.416C458.045 848.275 460.909 858.799 462.001 862.555C456.233 859.602 455.874 851.104 456.122 845.416Z"
     id="path2389" />
  <path
     fill="#F2E4F4"
     d="M629.101 493.073C635.094 493.241 644.593 497.218 649.85 499.938C643.111 499.543 634.772 496.677 629.101 493.073Z"
     id="path2391" />
  <path
     fill="#FEFEFE"
     d="M415.015 495.889L415.217 496.052C413.642 498.992 401.653 502.723 398.09 503.949C397.715 503.697 397.927 503.89 397.636 503.219C402.054 498.835 409.821 498.284 415.015 495.889Z"
     id="path2393" />
  <path
     fill="#FEFEFE"
     d="M597.033 840.683L597.952 841.405C600.211 846.019 599.306 850.976 598.619 855.893C598.28 856.279 598.518 856.083 597.8 856.325C596.435 853.722 596.974 844.091 597.033 840.683Z"
     id="path2395" />
  <path
     fill="#DDBDEA"
     d="M648.256 470.518L649.431 470.598C647.589 472.64 633.929 476.564 630.696 477.465C629.954 477.512 630.385 477.557 629.445 477.114C630.538 475.434 645.53 471.341 648.256 470.518Z"
     id="path2397" />
  <path
     fill="#DDBDEA"
     d="M637.04 484.704C642.436 484.064 650.619 484.373 655.593 486.832C650.745 487.416 641.553 486.837 637.04 484.704Z"
     id="path2399" />
  <path
     fill="#FEFEFE"
     d="M428.683 623.788L429.236 624.302C430.279 628.01 428.319 634.152 426.895 637.701L426.264 637.08C425.059 632.723 427.076 627.849 428.683 623.788Z"
     id="path2401" />
  <path
     fill="#DDBDEA"
     d="M622.018 363.265L623.196 367.261C620.481 369.102 616.513 371.111 613.541 372.721C616.391 369.292 618.758 366.354 622.018 363.265Z"
     id="path2403" />
  <path
     fill="#DDBDEA"
     d="M645.658 467.104C645.909 467.105 646.784 467.33 647.069 467.395C645.973 469.325 636.71 471.787 633.528 473.006L632.767 473.316L632.48 473C635.83 470.093 641.296 467.818 645.658 467.104Z"
     id="path2405" />
  <path
     fill="#F2E4F4"
     d="M407.055 487.762L407.247 488.156C405.291 489.624 396.999 490.32 394.036 490.685C393.585 490.215 393.754 490.52 393.681 489.704C396.302 487.95 403.617 487.938 407.055 487.762Z"
     id="path2407" />
  <path
     fill="#F2E4F4"
     d="M454.795 551.447C459.48 552.232 461.729 553.32 465.522 555.98C460.585 555.917 457.813 555.437 454.795 551.447Z"
     id="path2409" />
  <path
     fill="#F2E4F4"
     d="M654.083 474.613C655.579 474.449 656.031 474.484 657.498 474.546L657.449 475.028C654.231 476.381 653.049 476.467 649.614 476.989C648.552 477.092 647.634 477.12 646.568 477.155L646.431 476.717C648.98 475.519 651.343 475.166 654.083 474.613Z"
     id="path2411" />
  <path
     fill="#FEFEFE"
     d="M384.608 477.181C389.26 476.89 393.108 476.801 396.827 479.906C391.957 479.452 389.164 479.027 384.608 477.181Z"
     id="path2413" />
  <path
     fill="#D4A9E7"
     d="M397.82 473.463C403.177 473.818 406.525 475.36 411.32 477.473C407.411 477.552 401.363 475.066 397.82 473.463Z"
     id="path2415" />
  <path
     fill="#A771CF"
     d="M601.371 345.89C601.483 348.996 599.287 352.99 597.739 355.635C597.211 352.997 600.078 348.312 601.371 345.89Z"
     id="path2417" />
  <path
     fill="#A771CF"
     d="M733.527 620.082L733.355 620.927C731.769 622.722 730.649 623.039 728.457 624.066L728.407 623.588C729.596 622.089 731.806 621.062 733.527 620.082Z"
     id="path2419" />
  <path
     fill="#A771CF"
     d="M401.276 424.411L401.659 424.895C401.72 426.539 400.804 428.107 400.107 429.653L399.533 428.944C399.719 426.909 400.265 426.262 401.276 424.411Z"
     id="path2421" />
  <path
     fill="#A771CF"
     d="M635.532 746.785L636.067 747.192C636.858 748.68 636.577 750.45 636.514 752.194C634.994 750.579 635.434 748.893 635.532 746.785Z"
     id="path2423" />
  <path
     fill="#5B309B"
     d="M298.113 588.416C308.516 587.479 319.131 616.405 318.167 625.691C316.978 637.156 314.035 642.658 305.859 650.306C306.04 661.919 304.832 665.914 300.179 676.143C303.101 681.561 304.437 683.514 309.66 686.576C314.365 684.276 316.064 683.333 321.138 682.13C322.335 682.478 327.653 684.677 327.998 684.615C337.19 682.953 335.962 682.777 341.81 692.362C335.864 698.363 326.34 705.804 319.696 711.1C311.537 717.604 302.161 725.233 293.607 730.993C291.701 729.104 287.749 725.069 286.961 722.423C286.458 720.734 288.821 718.194 289.326 716.511C290.284 713.353 288.498 709.708 290.018 706.597C293.039 700.41 296.173 700.89 294.012 693.412C291.872 689.995 290.292 688.888 287.114 686.633C278.483 688.506 269.968 688.957 261.424 686.466C253.959 690.58 245.718 695.467 235.404 694.169C226.33 693.027 201.243 679.034 201.967 667.512C202.2 663.807 214.202 656.717 218.315 654.146C215.524 651.097 213.883 649.167 212.146 645.437C218.337 636.151 262.844 600.901 274.017 594.126C278.269 596.441 279.564 598.079 282.542 601.723C288.179 595.9 291.701 593.157 298.113 588.416ZM215.345 669.146C222.13 676.531 229.77 681.989 240.1 682.562C243.36 682.055 245.292 681.828 248.409 680.73C244.323 677.771 227.686 664.208 224.472 662.849C221.534 664.788 218.045 666.968 215.345 669.146ZM289.619 610.702C294.371 618.75 297.617 625.494 301.476 634.002C302.278 635.745 302.072 636.175 303.394 636.779C309.498 631.887 304.576 608.187 297.932 603.375C294.308 606.178 292.6 607.316 289.619 610.702Z"
     id="path2425" />
  <path
     fill="#D4A9E7"
     d="M272.854 599.099C279.527 599.719 291.793 622.927 294.641 628.464C301.489 641.772 305.902 657.613 297.863 671.69L296.434 675.574C303.34 698.802 313.602 684.224 322.712 686.635L323.17 687.43C321.731 692.764 297.588 710.522 291.685 712.946C295.714 699.868 306.189 692.356 286.572 682.916C280.52 684.264 275.348 684.965 269.101 684.279C249.814 682.162 228.138 660.97 216.533 646.1C230.985 632.652 246.631 620.157 262.067 607.847C265.692 604.956 269.414 602.214 272.854 599.099Z"
     id="path2427" />
  <path
     fill="#DDBDEA"
     d="M272.854 599.099C279.527 599.719 291.793 622.927 294.641 628.464C301.489 641.772 305.902 657.613 297.863 671.69C294.42 668.923 296.031 667.219 295.155 663.091C294.796 656.847 294.839 651.441 294.286 644.984C293.546 642.149 288.801 629.436 288.768 628.223C290.177 628.407 289.773 628.615 290.793 628.157C290.377 627.045 286.374 621.648 285.285 619.817C283.203 619.021 277.218 609.227 275.054 606.373L274.702 606.924L273.946 605.03C273.274 603.624 272.596 600.671 272.854 599.099Z"
     id="path2429" />
  <path
     fill="#F2E4F4"
     d="M294.286 644.984L295.358 644.807C297.259 646.208 297.866 647.708 297.106 650.093C297.06 653.056 297.003 653.985 297.616 656.94C297.737 659.19 297.337 661.905 295.155 663.091C294.796 656.847 294.839 651.441 294.286 644.984Z"
     id="path2431" />
  <path
     fill="#B07FD2"
     d="M275.054 606.373L275.6 605.899C279.366 608.224 283.355 615.84 285.285 619.817C283.203 619.021 277.218 609.227 275.054 606.373Z"
     id="path2433" />
  <path
     fill="#A771CF"
     d="M297.106 650.093C299.211 651.126 298.913 655.276 297.616 656.94C297.003 653.985 297.06 653.056 297.106 650.093Z"
     id="path2435" />
  <path
     fill="#F2E4F4"
     d="M273.946 605.03L274.702 606.924C274.73 612.008 275.97 624.754 275.204 628.975C273.492 626.274 273.771 609.108 273.946 605.03Z"
     id="path2437" />
  <path
     fill="#5B309B"
     d="M266.541 638.167C270.984 634.134 275.626 630.326 280.449 626.755C280.104 633.019 279.05 638.603 277.974 644.754C280.72 646.932 284.962 649.384 288.045 651.284L288.628 651.674L290.77 653.944L290.636 654.712C287.171 656.543 278.36 657.001 274.19 657.27C272.714 662.564 270.95 669.602 268.591 674.41C266.977 670.491 263.157 658.521 258.997 658.234L258.003 658.173C254.468 657.879 248.053 658.553 245.563 656.356L245.706 655.325C248.062 652.812 253.635 648.981 256.614 646.793C255.386 643.626 250.316 633.283 253.239 631.14C256.549 631.24 263.442 636.194 266.541 638.167Z"
     id="path2439" />
  <path
     fill="#A771CF"
     d="M267.352 641.457C270.733 638.023 272.873 636.225 276.746 633.262C276.341 637.299 275.589 641.516 275.246 645.348C278.501 649.385 280.639 650.558 285.004 653.274C271.727 654.586 271.614 654.558 268.476 667.544C266.259 663.703 264.89 659.808 262.7 656.006C259.839 656.001 255.514 656.143 252.837 655.606L251.899 655.288L251.872 654.434C253.339 652.196 255.825 650.335 257.904 648.55C259.789 645.064 256.285 637.805 254.86 634.208C258.959 636.562 263.351 638.983 267.352 641.457Z"
     id="path2441" />
  <path
     fill="#C497E1"
     d="M257.904 648.55C258.054 650.618 258.555 653.183 257.537 654.835C255.974 655.859 254.741 655.618 252.837 655.606L251.899 655.288L251.872 654.434C253.339 652.196 255.825 650.335 257.904 648.55Z"
     id="path2443" />
  <path
     fill="#C497E1"
     d="M220.827 646.064C222.658 643.857 224.466 641.253 227.201 640.436L228.243 640.724C228.898 642.957 229.799 650.673 228.374 652.52L226.673 650.009L224.424 650.189L220.827 646.064Z"
     id="path2445" />
  <path
     fill="#DDBDEA"
     d="M227.201 640.436L228.243 640.724C228.898 642.957 229.799 650.673 228.374 652.52L226.673 650.009C226.692 645.493 226.237 645.011 227.201 640.436Z"
     id="path2447" />
  <path
     fill="#DDBDEA"
     d="M288.045 651.284C286.531 644.948 285.499 640.166 285.172 633.664L285.526 633.446L285.288 632.691L285.192 633.351L285.383 632.587C286.52 635.964 289.513 647.853 289.141 651.013L288.628 651.674L288.045 651.284Z"
     id="path2449" />
  <path
     fill="#F2E4F4"
     d="M237.176 634.373L237.687 634.823C239.475 639.038 239.055 650.763 238.746 655.541C237.146 653.14 237.177 637.996 237.176 634.373Z"
     id="path2451" />
  <path
     fill="#5B309B"
     d="M259.94 676.421C260.607 674.474 260.231 674.503 261.581 673.608C263.231 674.805 263.093 676.853 263.076 678.758C264.652 679.229 264.952 679.329 266.503 680.085C263.278 680.626 255.824 676.767 252.929 674.996C255.811 675.595 256.811 676.017 259.496 677.098L259.94 676.421Z"
     id="path2453" />
  <path
     fill="#C497E1"
     d="M259.94 676.421C260.607 674.474 260.231 674.503 261.581 673.608C263.231 674.805 263.093 676.853 263.076 678.758C262.13 678.391 260.473 677.556 259.496 677.098L259.94 676.421Z"
     id="path2455" />
  <path
     fill="#A771CF"
     d="M224.424 650.189L226.673 650.009L228.374 652.52C230.792 656.134 234.275 657.026 237.795 663.389C233.216 659.44 227.916 655.072 224.424 650.189Z"
     id="path2457" />
  <path
     fill="#F2E4F4"
     d="M258.003 658.173L258.997 658.234C259.293 662.537 260.202 672.612 259.94 676.421C257.737 673.485 257.929 661.987 258.003 658.173Z"
     id="path2459" />
  <path
     fill="#F2E4F4"
     d="M264.156 610.862C265.983 612.905 264.808 624.678 264.394 627.711C262.944 623.928 263.092 614.64 264.156 610.862Z"
     id="path2461" />
  <path
     fill="#A771CF"
     d="M241.094 628.51L241.23 628.978C240.497 631.334 234.554 635.112 232.412 636.599L232.338 636.075C233.387 633.995 239.012 630.042 241.094 628.51Z"
     id="path2463" />
  <path
     fill="#F2E4F4"
     d="M255.234 618.891L255.78 619.552C256.291 623.318 256.278 627.136 255.742 630.898C253.88 628.002 254.765 622.15 255.234 618.891Z"
     id="path2465" />
  <path
     fill="#A771CF"
     d="M241.436 665.844C244.052 666.515 246.618 669.307 248.572 671.197C244.835 670.108 243.877 668.807 241.436 665.844Z"
     id="path2467" />
  <path
     fill="#D4A9E7"
     d="M207.904 665.579C210.127 663.821 212.319 662.024 214.478 660.19C215.491 661.318 216.698 662.735 217.755 663.774C216.083 664.952 213.214 666.679 213.17 668.774C212.958 678.727 232.974 685.08 240.123 685.787C245.673 685.517 247.704 684.735 252.644 682.199L257.992 684.867C254.81 686.62 251.651 688.396 248.091 689.277C232.584 695.04 219.038 684.12 208.744 674.071C207.051 672.362 205.747 671.216 205.581 668.791C206.032 667.048 206.569 666.782 207.904 665.579Z"
     id="path2469" />
  <path
     fill="#C497E1"
     d="M252.644 682.199L257.992 684.867C254.81 686.62 251.651 688.396 248.091 689.277C245.308 685.907 242.905 687.052 240.123 685.787C245.673 685.517 247.704 684.735 252.644 682.199Z"
     id="path2471" />
  <path
     fill="#DDBDEA"
     d="M207.904 665.579C209.448 668.47 210.17 670.969 208.744 674.071C207.051 672.362 205.747 671.216 205.581 668.791C206.032 667.048 206.569 666.782 207.904 665.579Z"
     id="path2473" />
  <path
     fill="#A771CF"
     d="M226.569 684.952C229.862 685.275 233.934 686.895 237.158 688.013C232.645 688.196 230.339 687.2 226.569 684.952Z"
     id="path2475" />
  <defs
     id="defs2482">
    <linearGradient
       id="gradient_0"
       gradientUnits="userSpaceOnUse"
       x1="291.24374"
       y1="615.21021"
       x2="314.58832"
       y2="617.52521">
      <stop
         offset="0"
         stop-color="#C5A3E3"
         id="stop2477" />
      <stop
         offset="1"
         stop-color="#EACAF2"
         id="stop2479" />
    </linearGradient>
  </defs>
  <path
     fill="url(#gradient_0)"
     d="M291.975 597.701C294.889 595.058 296.222 594.024 299.487 591.824C311.473 604.376 320.199 624.577 309.985 640.788C309.123 642.32 306.294 645.753 305.094 647.289L303.86 641.291C311.625 630.988 310.489 622.04 306.626 610.622C305.161 607.574 303.788 605.467 301.979 602.617C300.843 601.592 300.206 601.085 298.972 600.171C297.348 599.851 296.932 600.22 295.427 600.921C293.61 599.722 293.419 599.394 291.975 597.701Z"
     id="path2484" />
  <path
     fill="#DDBDEA"
     d="M306.806 607.876C312.4 617.332 312.304 622.732 309.867 633.175C309.603 634.308 308.718 638.238 308.834 639.296L309.985 640.788C309.123 642.32 306.294 645.753 305.094 647.289L303.86 641.291C311.625 630.988 310.489 622.04 306.626 610.622L306.806 607.876Z"
     id="path2486" />
  <path
     fill="#A771CF"
     d="M303.968 602.736L303.34 600.761L303.825 600.654C310.947 609.075 317.14 630.211 308.834 639.296C308.718 638.238 309.603 634.308 309.867 633.175C312.304 622.732 312.4 617.332 306.806 607.876L306.626 610.622C305.161 607.574 303.788 605.467 301.979 602.617L303.968 602.736Z"
     id="path2488" />
  <path
     fill="#DDBDEA"
     d="M301.979 602.617L303.968 602.736C304.909 604.357 306.044 606.189 306.806 607.876L306.626 610.622C305.161 607.574 303.788 605.467 301.979 602.617Z"
     id="path2490" />
  <path
     fill="#D4A9E7"
     d="M331.787 686.38C333.54 688.052 335.227 688.941 336.335 691.078C336.183 692.94 336.067 692.459 334.236 694.177C327.284 700.427 318.753 707.468 311.125 712.886L307.672 715.556C306.657 712.155 307.836 710.794 306.691 707.095C315.127 700.275 323.492 693.37 331.787 686.38Z"
     id="path2492" />
  <path
     fill="#DDBDEA"
     d="M331.787 686.38C333.54 688.052 335.227 688.941 336.335 691.078C336.183 692.94 336.067 692.459 334.236 694.177C333.182 692.954 333.178 693.167 332.566 691.734L331.684 691.494C326.44 695.167 312.459 703.033 310.893 709.477C310.802 709.854 311.058 712.269 311.125 712.886L307.672 715.556C306.657 712.155 307.836 710.794 306.691 707.095C315.127 700.275 323.492 693.37 331.787 686.38Z"
     id="path2494" />
  <path
     fill="#D4A9E7"
     d="M306.691 707.095C307.836 710.794 306.657 712.155 307.672 715.556C303.52 719.502 299.108 723.166 294.467 726.523C293.83 725.796 292.43 724.107 291.802 723.5C291.089 722.01 290.889 721.926 291.1 720.271C291.845 718.641 292.915 718.117 294.386 717.059C297.777 713.918 302.943 710.125 306.691 707.095Z"
     id="path2496" />
  <path
     fill="#DDBDEA"
     d="M291.802 723.5C291.089 722.01 290.889 721.926 291.1 720.271C291.845 718.641 292.915 718.117 294.386 717.059C294.901 720.153 294.114 721.472 291.802 723.5Z"
     id="path2498" />
  <path
     fill="#D4A9E7"
     d="M284.156 604.657C286.541 602.381 289.473 599.911 291.975 597.701C293.419 599.394 293.61 599.722 295.427 600.921C292.712 603.24 289.963 606.049 287.394 608.57L284.156 604.657Z"
     id="path2500" />
  <path
     fill="#DDBDEA"
     d="M214.478 660.19C217.077 658.259 219.242 656.333 222.294 658.578C222.723 661.549 220.075 662.558 217.755 663.774C216.698 662.735 215.491 661.318 214.478 660.19Z"
     id="path2502" />
  <path
     fill="#5B309B"
     d="M536.354 170.257C542.057 170.132 558.303 168.942 563.229 171.448C565.483 172.595 565.851 178.406 566.182 181.087C569.995 180.206 583.6 178.772 585.932 180.826C594.526 188.395 584.649 211.896 579.27 218.804C572.227 227.85 565.132 229.147 555.263 230.466C549.323 239.227 543.083 240.258 537.064 247.873C535.998 249.465 535.136 252.436 535.816 254.269C537.867 259.795 544.897 259.605 549.649 262.382L552.088 266.466C560.715 269.639 560.255 272.612 559.285 281.174C548.991 282.979 531.224 283.039 520.259 283.324C513.839 283.207 506.745 283.429 500.278 283.497C499.657 274.793 498.415 272.947 506.499 269.053C510.229 260.182 512.621 263.086 520.352 259.09C521.826 258.328 522.351 256.147 522.485 254.411C523.155 245.752 513.61 243.959 508.091 239.236C505.059 236.642 503.827 235.209 501.188 232.241C476.153 230.155 467.902 215.041 465.011 191.372C463.692 180.57 480.369 182.562 487.165 182.812C487.06 180.423 486.662 176.32 488.35 174.413C491.841 170.469 528.628 170.478 536.354 170.257ZM560.621 218.478C562.72 217.82 564.039 217.48 565.992 216.445C574.427 209.435 577.051 202.092 577.284 191.335C575.935 191.399 572.342 191.476 571.186 191.675C569.245 191.875 567.885 191.811 566.259 192.855C565.282 195.334 564.657 200.67 564.152 203.574C563.201 209.03 562.343 213.184 560.621 218.478ZM495.061 221.153C491.697 210.96 489.993 204.539 487.752 194.047L476.858 193.9C478.154 203.389 479.594 210.742 487.882 217C490.305 218.829 492.679 219.652 495.061 221.153Z"
     id="path2504" />
  <path
     fill="#D4A9E7"
     d="M490.973 176.625C504.191 175.201 518.591 174.674 531.893 174.278C540.406 174.025 552.626 173.513 561.039 174.408C564.302 189.737 561.048 214.204 552.608 227.886C546.863 237.2 540.799 238.612 533.8 244.601C527.556 266.323 541.788 258.763 548.265 267.329C546.938 269.722 514.957 270.743 510.969 268.787L510.498 267.951C513.504 262.263 533.011 266.11 523.573 244.938C519.95 241.797 514.382 240.191 512.308 237.988L509.056 235.624C500.733 228.461 496.06 214.157 493.715 203.851C491.656 194.118 491.002 186.503 490.973 176.625Z"
     id="path2506" />
  <path
     fill="#DDBDEA"
     d="M493.715 203.851C495.149 203.273 495.121 203.391 496.687 203.608C499.701 206.095 498.502 212.058 499.818 214.522C502.035 221.008 503.983 224.956 508.351 230.331L508.663 230.999L509.056 235.624C500.733 228.461 496.06 214.157 493.715 203.851Z"
     id="path2508" />
  <path
     fill="#A771CF"
     d="M499.818 214.522L500.565 214.438C502.382 216.884 508.295 227.716 508.351 230.331C503.983 224.956 502.035 221.008 499.818 214.522Z"
     id="path2510" />
  <path
     fill="#F2E4F4"
     d="M508.663 230.999C510.916 230.842 510.636 230.479 511.983 231.513C512.384 233.946 512.041 235.359 512.308 237.988L509.056 235.624L508.663 230.999Z"
     id="path2512" />
  <path
     fill="#5B309B"
     d="M526.271 185.173C529.513 186.846 532.168 195.855 533.459 199.519C539 199.216 544.547 199.054 550.096 199.033C546.949 203.335 542.03 207.401 537.941 210.873C539.792 216.293 541.436 221.939 543.107 227.429C537.835 224.556 532.885 221.259 527.84 218.007C525.254 219.244 516.019 226.8 512.902 228.992C514.397 223.079 516.038 217.204 517.823 211.372C512.874 207.725 509.146 205.451 505.533 200.418C510.186 199.872 516.877 199.778 521.694 199.568C522.872 193.789 523.838 190.515 526.271 185.173Z"
     id="path2514" />
  <path
     fill="#A771CF"
     d="M527.302 189.424C528.793 192.872 530.949 198.445 532.58 201.597C537.375 201.138 540.606 200.985 545.422 200.994C542.607 203.488 537.868 207.516 535.516 210.292C536.485 214.138 537.33 217.534 538.039 221.429C534.398 219.124 531.115 217.015 527.287 215.003C524.465 217.148 520.844 220.074 517.976 222.015C518.81 218.888 521.215 212.063 519.373 209.347C516.697 207.419 514.305 205.246 511.822 203.077L519.782 202.411C524.748 200.321 525.722 194.257 527.302 189.424Z"
     id="path2516" />
  <path
     fill="#A771CF"
     d="M511.822 203.077L519.782 202.411C520.018 205.109 520.152 206.711 519.373 209.347C516.697 207.419 514.305 205.246 511.822 203.077Z"
     id="path2518" />
  <path
     fill="#F2E4F4"
     d="M556.252 201.346C557.177 205.208 555.098 211.439 553.8 215.16C552.857 211.678 555.095 204.839 556.252 201.346Z"
     id="path2520" />
  <path
     fill="#5B309B"
     d="M509.211 178.261C511.939 178.071 518.128 177.252 520.109 178.78C517.969 178.992 510.451 179.749 509.211 178.261Z"
     id="path2522" />
  <path
     fill="#B07FD2"
     d="M541.25 176.092C543.101 176.123 543.885 175.945 545.393 177.002L545.064 177.564L543.519 177.812C541.12 177.751 540.624 177.781 538.347 177.189C538.963 176.252 539.739 176.419 541.25 176.092Z"
     id="path2524" />
  <path
     fill="#5B309B"
     d="M494.132 184.384C495.711 185.762 495.506 191.512 495.468 193.671C493.806 190.646 494.012 187.762 494.132 184.384Z"
     id="path2526" />
  <path
     fill="#A771CF"
     d="M527.35 251.251L528.245 252.181C528.898 254.498 528.547 255.921 528.282 258.313C527.179 256.125 527.249 253.618 527.35 251.251Z"
     id="path2528" />
  <path
     fill="#A771CF"
     d="M540.46 235.006L540.798 235.372C540.23 236.663 538.035 237.727 536.697 238.546L536.266 238.042C537.141 236.609 538.93 235.858 540.46 235.006Z"
     id="path2530" />
  <path
     fill="#A771CF"
     d="M496.361 179.258C499.039 178.905 500.623 178.642 503.062 179.754C500.331 180.155 498.858 180.371 496.361 179.258Z"
     id="path2532" />
  <path
     fill="#D4A9E7"
     d="M503.476 280.007C503.452 277.846 503.256 276.449 504.036 274.462C506.467 272.572 549.176 271.508 555.422 271.463L555.814 278.462C548.91 278.423 541.803 279.035 534.719 279.054C530.541 279.595 519.423 280.094 515.196 279.908C512 280.134 506.822 279.991 503.476 280.007Z"
     id="path2534" />
  <path
     fill="#C497E1"
     d="M519.385 276.418L520.167 276.439C524.842 276.541 530.867 274.621 533.116 276.303C531.325 278.117 528.556 275.974 527.489 278L528.089 278.826C530.532 278.819 532.267 278.796 534.719 279.054C530.541 279.595 519.423 280.094 515.196 279.908C516.765 279.518 519.004 279.52 519.885 278.534L519.453 276.938L519.385 276.418Z"
     id="path2536" />
  <path
     fill="#A771CF"
     d="M519.453 276.938C517.685 277.026 512.012 277.4 510.621 276.775C514.015 275.491 515.84 275.959 519.385 276.418L519.453 276.938Z"
     id="path2538" />
  <path
     fill="#D4A9E7"
     d="M570.897 183.633C574.292 183.444 580.581 182.761 583.441 184.048C589.731 190.487 581.299 210.597 576.696 216.855C571.746 223.585 564.867 225.886 557.08 227.232C558.975 220.646 561.134 222.251 566.607 219.51C574.495 215.56 582.206 198.273 580.018 190.11C576.365 186.914 566.234 190.243 565.44 186.285C566.708 183.896 568.4 184.048 570.897 183.633Z"
     id="path2540" />
  <path
     fill="#A771CF"
     d="M574.333 215.988L574.705 216.614C573.597 218.288 571.581 219.509 569.913 220.717L569.642 220.584C569.913 219.268 572.998 217.12 574.333 215.988Z"
     id="path2542" />
  <path
     fill="#D4A9E7"
     d="M478.473 186.207C481.63 186.037 484.303 186.038 487.215 187.289C488.186 189.257 488.166 188.349 487.916 190.101C484.758 193.28 475.149 188.811 474.232 193.093C473.451 196.736 475.367 203.428 476.798 206.992C481.043 217.564 487.403 221.447 497.463 225.534C498.655 226.348 498.709 226.975 498.893 228.198C498.061 228.995 498.296 228.963 497.117 228.909C481.143 228.173 471.784 212.801 469.59 198.496C468.968 194.435 468.944 191.241 469.017 187.153C472.118 186.654 475.334 186.462 478.473 186.207Z"
     id="path2544" />
  <path
     fill="#5B309B"
     d="M377.244 540.949C378.078 542.89 378.764 544.707 379.341 546.737C381.17 552.957 380.307 559.658 376.963 565.213C366.711 582.489 338.212 584.995 322.486 575.111C307.01 565.383 304.051 541.469 311.474 526.052C315.609 517.465 320.963 514.552 320.906 503.715C320.848 492.946 315.301 480.239 321.029 470.461C325.425 463.1 336.349 462.168 342.585 467.168C351.589 474.388 352.464 493.019 354.081 504.01C346.498 503.958 340.101 504.796 333.358 508.494C330.612 510.422 327.77 512.367 325.073 514.35C328.441 513.012 331.703 511.511 335.039 510.191C359.59 504.03 382.585 510.394 377.244 540.949Z"
     id="path2546" />
  <path
     fill="#5B309B"
     d="M765.425 300.125C768.529 301.781 769.729 311.702 770.46 315.254C771.368 319.706 772.562 324.094 774.034 328.392C776.125 334.649 778.968 340.629 782.501 346.201C791.69 360.462 802.459 366.054 818.508 369.446C810.413 371.832 801.748 374.328 794.971 379.489C776.455 393.593 773.412 412.708 770.151 433.762C769.182 433.538 769 433.768 768.633 432.51C767.697 429.028 766.959 425.424 766.181 421.896C760.239 394.96 745.422 376.407 717.462 370.398C723.21 368.086 727.327 367.346 733.324 364.187C751.343 355.167 758.093 337.382 761.833 318.717C762.982 312.986 763.577 305.67 765.425 300.125ZM728.952 369.513C748.602 378.116 756.322 386.067 764.6 406.474C765.563 408.849 768.136 418.156 769.261 419.195C770.619 411.089 774.186 401.836 777.711 394.41C783.277 382.685 794.185 374.112 806.363 369.664C792.145 365.255 783.835 357.124 776.927 344.063C774.685 339.81 772.815 335.37 771.338 330.795C770.227 327.397 767.403 315.661 766.02 313.773C758.914 342.63 757.183 355.221 728.952 369.513Z"
     id="path2548" />
  <path
     fill="#5B309B"
     d="M168.357 284.212C184.236 283.825 192.687 287.996 202.954 299.885C219.949 319.565 200.386 340.657 207.525 359.813C209.237 361.475 210.312 361.999 212.355 363.217C216.508 355.921 223.44 348.155 232.807 351.215C236.446 352.411 239.421 355.072 241.011 358.557C242.443 361.654 243.112 366.84 241.65 369.947C237.551 378.657 226.763 376.42 221.936 378.21C222.094 379.446 223.186 379.931 224.449 380.679C236.356 387.723 252.659 381.309 262.568 392.89C268.806 400.182 272.453 415.759 271.667 425.033C271.053 428.268 270.148 435.368 266.462 435.991C263.185 434.459 260.679 427.574 259.254 424.202C274.013 393.608 239.595 406.886 224.673 396.815C215.53 390.644 214.982 385.053 212.343 375.067C208.695 371.537 204.531 368.393 201.146 364.742C191.055 353.982 190.331 339.465 193.272 325.724C194.42 320.359 198.903 307.444 193.995 303.713C185.39 297.17 169.277 302.333 159.295 302.627L158.517 302.645C142.53 287.323 153.008 285.727 168.357 284.212Z"
     id="path2550" />
  <path
     fill="#A771CF"
     d="M199.014 299.561C215.555 319.591 200.942 332.227 202.907 354.007C203.989 365.997 219.308 370.232 229.451 368.783C231.728 370.981 232.641 371.366 233.427 374.325C222.602 378.054 212.671 373.206 205.111 365.681C190.147 350.786 195.147 331.217 198.51 312.738C199.194 308.98 199.043 303.476 199.014 299.561Z"
     id="path2552" />
  <path
     fill="#C497E1"
     d="M199.612 328.811C201.47 330.368 200.103 342.678 199.519 345.201C197.741 341.263 198.741 333.096 199.612 328.811Z"
     id="path2554" />
  <path
     fill="#B07FD2"
     d="M216.524 379.679C225.127 384.884 227.193 385.472 236.796 387.405L237.305 387.484C253.551 386.832 261.745 393.471 266.852 408.394C264.807 406.329 262.002 403.56 259.414 402.443C240.742 394.388 223.877 406.034 216.524 379.679Z"
     id="path2556" />
  <path
     fill="#DDBDEA"
     d="M236.796 387.405L237.305 387.484C238.416 389.045 239.969 391.058 239.994 392.926C237.853 392.067 237.114 390.319 236.211 388.272L236.796 387.405Z"
     id="path2558" />
  <path
     fill="#A771CF"
     d="M152.375 288.79C163.875 287.344 181.867 285.094 191.148 293.491C192.543 295.024 194.891 297.599 194.66 299.795C193.276 300.081 193.99 300.043 192.369 299.254C181.068 297.436 170.973 298.952 159.713 300.207C157.072 296.372 154.812 292.74 152.375 288.79Z"
     id="path2560" />
  <path
     fill="#DDBDEA"
     d="M192.369 299.254C192.201 298.935 192.038 298.613 191.88 298.29C190.977 296.434 190.467 295.454 191.148 293.491C192.543 295.024 194.891 297.599 194.66 299.795C193.276 300.081 193.99 300.043 192.369 299.254Z"
     id="path2562" />
  <path
     fill="#C497E1"
     d="M226.198 353.543C228.381 353.513 232.709 353.145 233.531 355.581C231.479 359.172 226.213 359.101 221.547 364.18L221.089 364.687C219.483 366.726 218.317 366.738 216.213 365.459C214.261 360.003 222.097 355.503 226.198 353.543Z"
     id="path2564" />
  <path
     fill="#C497E1"
     d="M229.451 368.783C235.475 364.924 235.426 363.795 236.564 356.755C240.542 364.529 242.524 369.764 233.427 374.325C232.641 371.366 231.728 370.981 229.451 368.783Z"
     id="path2566" />
  <path
     fill="#B07FD2"
     d="M262.034 424.341C263.121 421.664 264.544 416.401 267.738 416.241C269.884 418.231 269.387 422.627 269.417 425.456C268.932 427.043 268.519 428.561 267.846 430.08C267.716 430.463 267.354 430.986 267.128 431.36C264.767 430.565 263.248 426.701 262.034 424.341Z"
     id="path2568" />
  <path
     fill="#C497E1"
     d="M267.846 430.08C266.653 427.828 266.951 426.843 267.83 424.637L268.623 424.319L269.417 425.456C268.932 427.043 268.519 428.561 267.846 430.08Z"
     id="path2570" />
  <path
     fill="#FEFEFE"
     d="M231.156 360.885C231.555 361.04 231.861 361.397 232.22 361.716L232.06 362.794C230.307 365.175 227.901 366.181 225.14 366.989L224.264 366.807L224.103 366.082C225.546 363.616 228.659 362.174 231.156 360.885Z"
     id="path2572" />
  <path
     fill="#5B309B"
     d="M818.149 176.71C820.649 176.288 822.048 176.189 823.606 178.184C824.574 182.98 820.859 188.758 818.557 193.151C801.741 196.557 772.144 199.3 766.238 219.015C777.703 220.141 805.898 220.784 793.462 241.313C787.844 250.586 774.666 248.599 767.425 242.612C764.017 239.794 761.08 235.578 757.42 232.966C752.201 234.764 752.289 243.304 753.48 247.695C755.333 249.713 760.084 249.301 762.866 249.384C776.565 249.792 784.62 261.34 771.924 271.738C761.164 277.341 753.793 269.685 747.085 262.268C733.605 268.451 732.049 277.237 726.235 289.157L725.657 289.293C723.43 285.609 724.638 275.417 725.867 271.222C728.765 261.337 734.814 256.399 743.43 251.648C743.195 236.793 745.005 230.826 757.508 221.909C763.369 190.048 788.356 179.27 818.149 176.71Z"
     id="path2574" />
  <path
     fill="#A771CF"
     d="M782.982 198.285C775.611 202.803 773.331 203.649 767.342 209.776L766.72 209.544C765.7 206.544 767.673 203.479 769.493 201.225C782.826 184.709 801.147 181.154 821.295 179.493C819.682 182.91 818.293 186.829 816.945 190.392C804.42 192.707 798.161 194.03 785.756 197.281L782.982 198.285Z"
     id="path2576" />
  <path
     fill="#DDBDEA"
     d="M782.982 198.285C783.923 196.461 784.988 194.639 787.059 193.964C787.273 195.409 786.708 195.654 785.756 197.281L782.982 198.285Z"
     id="path2578" />
  <path
     fill="#DDBDEA"
     d="M815.542 183.606L815.796 183.84L815.695 184.636C812.824 186.808 807.449 187.971 803.942 188.853C803.774 188.699 803.827 188.412 803.793 188.187C807.384 185.915 811.465 184.681 815.542 183.606Z"
     id="path2580" />
  <path
     fill="#B07FD2"
     d="M756.788 252.211C761.325 251.748 775.148 253.921 774.297 260.174L773.156 260.894C768.1 261.457 765.654 259.062 761.105 257.734C754.396 255.774 746.604 259.053 740.82 262.273C736.628 265.054 730.852 272.543 729.178 272.867C728.385 270.258 731.012 265.521 732.709 263.59C738.96 256.472 747.539 252.937 756.788 252.211Z"
     id="path2582" />
  <path
     fill="#A771CF"
     d="M764.762 222.741C775.125 221.99 788.142 222.344 794.359 232.143C793.083 233.839 792.079 235.278 790.563 236.781C783.175 229.562 778.57 227.779 768.236 227.911L767.227 227.926C767.285 225.5 767.985 225.202 767.102 223.388L764.762 222.741Z"
     id="path2584" />
  <path
     fill="#B07FD2"
     d="M762.89 231.359C771.797 232.442 771.536 240.696 787.371 240.498C788.832 239.404 789.891 238.73 791.45 237.771L791.763 238.126L790.46 239.823C788.139 242.306 787.068 243.088 784.138 244.756C775.897 244.533 763.955 241.105 762.89 231.359Z"
     id="path2586" />
  <path
     fill="#B07FD2"
     d="M755.357 266.599C753.358 264.745 751.618 263.767 751.991 260.84L752.92 260.267C754.73 260.57 754.923 260.895 756.286 262.08C763.2 266.643 764.623 268.121 772.634 264.907L773.156 265.319C770.566 272.061 759.496 271.374 755.357 266.599Z"
     id="path2588" />
  <path
     fill="#C497E1"
     d="M755.357 266.599C753.358 264.745 751.618 263.767 751.991 260.84L752.92 260.267C754.73 260.57 754.923 260.895 756.286 262.08C756.866 264.292 757.247 264.184 756.56 265.847L755.357 266.599Z"
     id="path2590" />
  <path
     fill="#B07FD2"
     d="M748.471 234.562C752.939 227.199 756.785 224.772 764.762 222.741L767.102 223.388C767.985 225.202 767.285 225.5 767.227 227.926C759.004 229.069 755.832 230.609 748.471 234.562Z"
     id="path2592" />
  <path
     fill="#B07FD2"
     d="M749.094 239.309C750.378 241.117 751.497 246.423 751.068 248.74C750.773 250.331 749.978 250.444 748.599 251.341C744.033 249.247 747.547 242.476 749.094 239.309Z"
     id="path2594" />
  <path
     fill="#B07FD2"
     d="M762.813 215.106L763.652 215.432C765.761 218.057 764.489 219.569 762.315 221.332C761.063 220.766 761.622 221.141 760.779 219.995C760.792 217.908 761.666 216.982 762.813 215.106Z"
     id="path2596" />
  <path
     fill="#5B309B"
     d="M864.153 399.997C865.252 399.927 865.287 399.986 866.396 400.13L866.8 401.011C865.865 419.169 846.468 416.707 836.977 429.514C843.816 445.477 857.576 444.104 862.715 454.916C871.847 474.129 844.116 479.242 831.919 479.953C823.036 480.472 812.672 483.266 805.48 486.129C795.412 490.138 805.607 500.89 808.282 506.073C817.035 523.549 807.805 535.559 792.892 543.96C790.424 545.309 785.947 547.975 783.304 547.241C782.508 546.139 782.359 545.626 782.186 544.47C779.325 525.342 791.415 532.322 800.026 523.233C802.337 516.883 791.922 508.969 791.557 502.293C789.635 467.09 821.989 466.137 845.218 461.758C838.37 456.887 831.659 452.66 829.055 444.044C826.995 437.231 827.935 428.487 831.423 422.324C838.875 409.16 850.679 404.209 864.153 399.997Z"
     id="path2598" />
  <path
     fill="#D4A9E7"
     d="M860.373 459.497L860.775 459.975C861.182 461.477 860.871 462.714 860.429 464.194C857.882 473.383 843.667 475.148 835.437 475.881C820.11 477.245 812.146 478.978 798.779 486.753C798.313 486.252 798.563 486.61 798.337 485.521C803.807 468.922 832.289 467.79 846.006 464.918C851.354 463.798 855.548 462.024 860.373 459.497Z"
     id="path2600" />
  <path
     fill="#C497E1"
     d="M842.194 441.656C848.081 447.332 866.547 453.639 851.788 460.875C845.999 458.246 843.35 456.536 838.271 452.67C841.809 447.231 839.984 446.595 842.194 441.656Z"
     id="path2602" />
  <path
     fill="#C497E1"
     d="M807.36 520.442L807.654 520.761C807.902 522.337 807.19 524.775 806.662 526.281C803.394 535.6 793.855 539.525 785.693 543.49C784.962 542.719 785.227 543.115 785.082 541.882C784.085 533.353 795.064 531.055 800.693 526.744C804.138 524.106 804.443 523.805 807.36 520.442Z"
     id="path2604" />
  <path
     fill="#C497E1"
     d="M797.633 492.415C800.745 499.552 805.417 506.489 807.767 513.361C806.557 516.247 806.039 517.147 804.426 519.723C798.125 511.053 790.206 502.612 797.633 492.415Z"
     id="path2606" />
  <path
     fill="#D4A9E7"
     d="M860.77 403.913L861.505 403.92L861.778 404.665C860.801 407.45 858.973 410.281 857.467 412.871C849.036 416.955 846.237 417.718 838.743 423.43L837.948 423.374C836.267 413.91 853.976 406.636 860.77 403.913Z"
     id="path2608" />
  <path
     fill="#D4A9E7"
     d="M834.124 425.514C835.107 433.237 837.021 436.301 842.194 441.656C839.984 446.595 841.809 447.231 838.271 452.67C828.599 443.959 830.296 436.539 834.124 425.514Z"
     id="path2610" />
  <path
     fill="#5B309B"
     d="M289.681 243.866C291.896 246.102 294.887 264.995 296.463 269.633C303.348 289.896 310.55 300.42 332.682 303.744C300.318 316.434 300.138 328.725 292.844 360.276L292.119 362.069L291.567 362.21C289.276 351.948 286.926 340.662 283.012 330.978C276.625 315.177 267.85 313.107 253.622 307.191C284.866 296.756 282.578 270.302 289.681 243.866ZM260.994 306.691C285.139 319.366 282.406 322.09 291.654 347.543C295.256 332.284 300.458 316.763 314.621 307.88C316.219 306.893 317.863 305.984 319.547 305.155C304.379 297.442 299.673 289.403 294.094 273.266C293.118 270.444 290.422 259.202 289.56 257.768C285.554 277.443 282.467 298.725 260.994 306.691Z"
     id="path2612" />
  <path
     fill="#5B309B"
     d="M208.391 494.206C208.562 494.268 208.733 494.329 208.903 494.391L209.751 494.713C215.171 496.727 220.969 500.218 226.25 502.951C229.514 501.208 237.863 495.678 241.006 497.679C242.303 501.035 239.577 507.904 238.333 511.433C243 515.578 248.718 520.739 251.95 525.957C245.34 528.182 237.523 526.34 234.514 528.728C232.499 532.997 230.313 539.725 227.199 542.882C222.755 544.473 219.489 532.736 218.146 529.205C214.506 528.829 202.198 528.604 201.274 524.51C202.532 520.98 209.453 515.4 212.517 512.558C210.686 506.361 208.662 500.672 208.391 494.206Z"
     id="path2614" />
  <path
     fill="#A771CF"
     d="M212.229 498.98C215.006 500.718 217.792 502.44 220.589 504.147L226.294 507.031C228.62 505.565 230.388 504.602 232.792 503.351L238.534 499.954C237.877 502.515 237.24 505.173 236.483 507.699C236.236 509.713 235.926 511.873 235.79 513.886C239.577 518.1 242.816 520.242 246.695 523.916C242.719 524.083 237.052 524.589 233.281 524.531C230.143 529.944 228.272 534.726 225.915 540.5C220.354 526.471 222.376 526.016 206.949 524.8C206.301 524.602 206.704 524.761 205.81 524.174C206.778 522.392 209.183 520.805 210.863 519.494C213.599 514.935 216.474 516.56 215.26 509.207C213.994 506.194 213.075 502.207 212.229 498.98Z"
     id="path2616" />
  <path
     fill="#B07FD2"
     d="M212.229 498.98C215.006 500.718 217.792 502.44 220.589 504.147C219.541 507.508 219.168 508.966 215.26 509.207C213.994 506.194 213.075 502.207 212.229 498.98Z"
     id="path2618" />
  <path
     fill="#D4A9E7"
     d="M232.792 503.351L238.534 499.954C237.877 502.515 237.24 505.173 236.483 507.699C234.871 506.32 234.041 505.033 232.792 503.351Z"
     id="path2620" />
  <path
     fill="#DDBDEA"
     d="M210.863 519.494C210.545 522.935 209.831 522.846 206.949 524.8C206.301 524.602 206.704 524.761 205.81 524.174C206.778 522.392 209.183 520.805 210.863 519.494Z"
     id="path2622" />
  <path
     fill="#5B309B"
     d="M798.866 666.752C802.217 668.013 801.094 681.969 800.993 685.367C806.329 688.508 810.295 691.184 815.368 694.722C810.096 697.091 805.453 698.895 799.819 700.277C798.913 704.308 798.296 715.453 793.989 716.442C791.036 715.339 785.383 707.189 782.351 703.928C778.632 704.665 768.015 707.528 765.638 704.415C765.696 701.082 771.698 693.658 773.915 690.443C772.515 686.812 766.539 676.444 769.611 673.643C773.253 672.936 780.916 676.118 784.707 677.468C789.155 674.966 794.779 670.086 798.866 666.752Z"
     id="path2624" />
  <path
     fill="#A771CF"
     d="M785.622 681.868C789.524 679.479 794.604 674.533 798.108 671.306C798.065 675.599 796.834 684.848 798.924 688.104C802.731 690.214 805.555 691.841 809.152 694.261C804.57 695.546 800.537 696.597 796.116 698.426C795.561 703.708 794.984 708.18 793.772 713.354C790.66 708.901 787.309 704.262 783.724 700.199C781.349 700.702 771.798 703.352 770.4 701.625L771.625 699.876C773.754 697.151 775.859 694.406 777.939 691.642C776.267 686.544 773.333 681.596 771.333 676.184C775.99 678.323 780.824 680.063 785.622 681.868Z"
     id="path2626" />
  <path
     fill="#DDBDEA"
     d="M798.924 688.104C799.1 691.073 793.155 697.159 790.846 698.922C791.954 695.949 796.353 689.809 798.924 688.104Z"
     id="path2628" />
  <path
     fill="#5B309B"
     d="M396.672 165.825C399.628 169.859 399.352 179.764 399.562 185.025C405.506 187.512 408.771 189.258 414.11 192.848C408.744 195.684 405.067 197.2 399.227 198.9C399.176 203.388 399.078 211.118 397.022 214.996C392.484 218.177 388.219 205.039 382.73 204.516C379.378 205.481 368.384 209.452 366.209 206.118C366.298 202.719 371.361 195.671 373.389 192.14C370.504 184.908 368.045 183.213 365.97 174.855C372.87 174.972 377.012 176.271 383.619 178.317C387.718 174.867 391.902 169.926 396.672 165.825Z"
     id="path2630" />
  <path
     fill="#A771CF"
     d="M393.283 174.074L394.763 172.553L395.547 172.621C397.052 175.122 396.534 182.402 396.481 185.695C399.878 188.668 404.359 190.603 408.432 192.573C404.529 193.979 399.643 195.592 395.947 197.303C396.022 200.542 396.215 203.648 395.723 206.85C395.677 208.366 395.879 209.784 394.977 210.875C393.258 210.293 391.845 207.869 390.493 206.173C383.322 199.073 378.201 201.954 369.586 204.326C372.027 199.776 374.455 195.75 377.117 191.328C374.552 186.831 371.983 182.154 369.162 177.829C374.048 178.887 378.866 180.235 383.592 181.865C386.256 179.761 388.596 177.923 391.394 176.004L393.283 174.074Z"
     id="path2632" />
  <path
     fill="#C497E1"
     d="M390.493 206.173C392.068 205.387 392.78 204.832 394.531 204.951C395.715 205.94 395.322 205.333 395.723 206.85C395.677 208.366 395.879 209.784 394.977 210.875C393.258 210.293 391.845 207.869 390.493 206.173Z"
     id="path2634" />
  <path
     fill="#F2E4F4"
     d="M390.38 179.877L391.217 180.183C390.342 183.53 388.943 188.624 387.275 191.682L386.465 191.874C387.557 187.817 388.529 183.63 390.38 179.877Z"
     id="path2636" />
  <path
     fill="#B07FD2"
     d="M386.465 191.874L387.275 191.682C386.51 194.178 387.436 194.586 385.495 197.495L384.898 197.517C384.787 195.296 385.597 193.942 386.465 191.874Z"
     id="path2638" />
  <path
     fill="#C497E1"
     d="M393.283 174.074C393.754 175.607 392.032 178.312 391.217 180.183L390.38 179.877L391.394 176.004L393.283 174.074Z"
     id="path2640" />
  <path
     fill="#D4A9E7"
     d="M396.325 188.901C396.484 189.104 396.869 189.972 396.999 190.244C397.033 192.772 391.544 198.408 389.477 201.281L388.924 200.527C389.026 199.581 394.972 191.216 396.325 188.901Z"
     id="path2642" />
  <path
     fill="#5B309B"
     d="M665.126 176.378C668.424 180.051 671.289 186.864 673.417 191.499C697.417 188.94 692.68 194.052 679.065 206.195C680.221 209.704 684.248 219.177 680.581 221.279C676.64 221.2 673.835 219.008 670.396 216.963L667.022 214.981C663.823 217.097 656.861 222.718 653.379 220.268C651.813 216.824 653.535 210.552 654.581 206.945C651.618 204.656 643.846 199.8 645.412 195.784C648.491 193.306 654.505 193.229 658.631 192.802C660.322 187.339 661.979 181.115 665.126 176.378Z"
     id="path2644" />
  <defs
     id="defs2651">
    <linearGradient
       id="gradient_1"
       gradientUnits="userSpaceOnUse"
       x1="678.69934"
       y1="214.54015"
       x2="660.95715"
       y2="199.9639">
      <stop
         offset="0"
         stop-color="#9657C8"
         id="stop2646" />
      <stop
         offset="1"
         stop-color="#B583D6"
         id="stop2648" />
    </linearGradient>
  </defs>
  <path
     fill="url(#gradient_1)"
     d="M647.3 197.292C649.874 197.082 653.891 196.582 656.322 196.373C662.819 195.816 662.432 185.816 665.976 185.079C667.565 186.067 668.28 188.189 669.133 189.956L671.955 194.435L680.304 194.507C682.542 194.491 683.091 194.081 684.584 195.092C684.364 197.294 679.157 201.256 677.148 203.395C675.004 206.856 678.029 214.589 679.225 218.382C675.228 216.007 671.151 213.77 667 211.677L656.163 218.14C656.635 215.064 657.333 209.364 658.038 206.53C656.184 204.345 649.812 199.343 647.3 197.292Z"
     id="path2653" />
  <path
     fill="#A771CF"
     d="M647.3 197.292C649.874 197.082 653.891 196.582 656.322 196.373C662.819 195.816 662.432 185.816 665.976 185.079C667.565 186.067 668.28 188.189 669.133 189.956C665.821 192.69 659.687 202.532 658.038 206.53C656.184 204.345 649.812 199.343 647.3 197.292Z"
     id="path2655" />
  <path
     fill="#B07FD2"
     d="M680.304 194.507C682.542 194.491 683.091 194.081 684.584 195.092C684.364 197.294 679.157 201.256 677.148 203.395C675.379 199.768 678.11 197.152 680.304 194.507Z"
     id="path2657" />
  <path
     fill="#5B309B"
     d="M329.091 387.297C335.62 385.291 342.535 388.973 344.516 395.509C346.498 402.045 342.79 408.946 336.247 410.903C329.738 412.85 322.881 409.166 320.91 402.664C318.939 396.163 322.597 389.292 329.091 387.297Z"
     id="path2659" />
  <path
     fill="#A771CF"
     d="M329.975 390.214C334.836 388.844 339.882 391.699 341.213 396.571C342.543 401.443 339.649 406.466 334.766 407.757C329.939 409.034 324.985 406.179 323.67 401.362C322.354 396.545 325.169 391.569 329.975 390.214Z"
     id="path2661" />
  <path
     fill="#5B309B"
     d="M844.995 326.255C849.274 325.055 853.867 326.256 857.012 329.397C860.156 332.537 861.362 337.129 860.167 341.41C858.972 345.69 855.562 348.993 851.246 350.051C844.723 351.651 838.123 347.723 836.417 341.228C834.71 334.732 838.528 328.068 844.995 326.255Z"
     id="path2663" />
  <path
     fill="#A771CF"
     d="M845.45 329.794C850.153 328.204 855.255 330.721 856.854 335.421C858.453 340.121 855.944 345.228 851.247 346.835C846.538 348.446 841.416 345.929 839.813 341.218C838.211 336.506 840.736 331.388 845.45 329.794Z"
     id="path2665" />
  <path
     fill="#5B309B"
     d="M821.579 593.204C828.201 591.783 834.725 595.988 836.164 602.606C837.604 609.224 833.417 615.759 826.802 617.217C820.163 618.68 813.597 614.473 812.152 607.829C810.707 601.186 814.932 594.632 821.579 593.204Z"
     id="path2667" />
  <path
     fill="#B07FD2"
     d="M823.754 596.224C827.01 596.074 830.094 597.694 831.818 600.46C833.542 603.227 833.638 606.709 832.069 609.566C830.5 612.423 827.51 614.211 824.25 614.24C819.338 614.284 815.295 610.386 815.16 605.476C815.025 600.565 818.847 596.451 823.754 596.224Z"
     id="path2669" />
  <path
     fill="#5B309B"
     d="M259.108 201.755C264.909 200.3 270.788 203.839 272.216 209.647C273.644 215.454 270.078 221.316 264.263 222.717C258.487 224.109 252.673 220.571 251.254 214.802C249.835 209.033 253.345 203.201 259.108 201.755Z"
     id="path2671" />
  <path
     fill="#B07FD2"
     d="M259.23 205.24C262.999 203.846 267.193 205.707 268.688 209.437C270.184 213.167 268.437 217.41 264.749 219.006C262.273 220.078 259.41 219.72 257.273 218.073C255.136 216.425 254.063 213.747 254.469 211.08C254.876 208.413 256.699 206.176 259.23 205.24Z"
     id="path2673" />
  <path
     fill="#5B309B"
     d="M371.312 697.137C374.335 696.663 377.414 697.539 379.735 699.533C382.056 701.528 383.385 704.44 383.371 707.5C383.346 712.732 379.452 717.138 374.263 717.805C368.6 718.534 363.403 714.579 362.596 708.927C361.789 703.274 365.672 698.023 371.312 697.137Z"
     id="path2675" />
  <path
     fill="#A771CF"
     d="M370.639 700.18C374.347 698.976 378.334 700.97 379.595 704.658C380.856 708.347 378.923 712.364 375.255 713.682C372.831 714.552 370.127 714.049 368.178 712.365C366.229 710.681 365.339 708.078 365.849 705.554C366.359 703.029 368.19 700.976 370.639 700.18Z"
     id="path2677" />
  <path
     fill="#5B309B"
     d="M539.769 300.787C543.361 299.893 547.155 301.005 549.697 303.695C552.24 306.385 553.135 310.236 552.04 313.771C550.946 317.307 548.031 319.978 544.413 320.761C538.938 321.946 533.524 318.518 532.256 313.061C530.987 307.604 534.332 302.139 539.769 300.787Z"
     id="path2679" />
  <path
     fill="#A771CF"
     d="M539.391 304.015C548.943 303.708 553.214 310.19 544.713 316.812C534.343 318.003 531.243 309.257 539.391 304.015Z"
     id="path2681" />
  <path
     fill="#5B309B"
     d="M708.068 403.198C713.121 401.568 718.533 404.373 720.114 409.442C721.694 414.511 718.835 419.895 713.751 421.425C708.737 422.933 703.445 420.123 701.886 415.125C700.328 410.127 703.086 404.806 708.068 403.198Z"
     id="path2683" />
  <path
     fill="#DDBDEA"
     d="M709.227 406.199C712.545 405.342 715.926 407.349 716.764 410.672C717.602 413.994 715.575 417.364 712.247 418.182C708.947 418.994 705.611 416.988 704.781 413.692C703.95 410.397 705.936 407.049 709.227 406.199Z"
     id="path2685" />
  <path
     fill="#5B309B"
     d="M671.172 634.253C675.782 633.232 680.375 636.037 681.572 640.604C682.77 645.17 680.144 649.867 675.627 651.24C672.609 652.157 669.331 651.386 667.038 649.219C664.674 646.985 663.737 643.628 664.603 640.493C665.469 637.357 667.997 634.957 671.172 634.253Z"
     id="path2687" />
  <path
     fill="#C497E1"
     d="M671.581 637.189C674.342 636.258 677.34 637.716 678.31 640.464C679.281 643.211 677.865 646.229 675.132 647.239C673.329 647.905 671.307 647.548 669.84 646.306C668.373 645.063 667.689 643.127 668.05 641.239C668.41 639.351 669.76 637.804 671.581 637.189Z"
     id="path2689" />
  <path
     fill="#5B309B"
     d="M430.198 250.338C434.795 248.918 439.671 251.507 441.068 256.111C442.466 260.715 439.853 265.578 435.242 266.953C432.8 267.682 430.16 267.3 428.024 265.909C425.201 264.072 423.696 260.768 424.162 257.432C424.628 254.097 426.981 251.332 430.198 250.338Z"
     id="path2691" />
  <path
     fill="#A771CF"
     d="M431.72 253.225C434.534 252.534 437.376 254.253 438.069 257.066C438.763 259.88 437.045 262.723 434.233 263.419C431.417 264.115 428.57 262.396 427.875 259.579C427.181 256.763 428.903 253.917 431.72 253.225Z"
     id="path2693" />
  <path
     fill="#5B309B"
     d="M690.952 245.683C693.839 244.694 697.035 245.335 699.318 247.361C701.6 249.387 702.616 252.485 701.976 255.469C701.336 258.453 699.14 260.862 696.227 261.775C691.806 263.16 687.093 260.734 685.65 256.332C684.206 251.93 686.569 247.185 690.952 245.683Z"
     id="path2695" />
  <path
     fill="#D4A9E7"
     d="M692.049 248.74C693.754 248.106 695.668 248.448 697.048 249.633C698.427 250.819 699.054 252.66 698.683 254.441C698.313 256.221 697.004 257.66 695.266 258.197C692.682 258.995 689.932 257.593 689.061 255.032C688.19 252.472 689.514 249.683 692.049 248.74Z"
     id="path2697" />
  <path
     fill="#5B309B"
     d="M221.855 578.195C226.362 576.939 231.029 579.596 232.25 584.113C233.47 588.631 230.775 593.277 226.248 594.461C221.773 595.631 217.19 592.974 215.984 588.507C214.777 584.041 217.398 579.437 221.855 578.195Z"
     id="path2699" />
  <path
     fill="#C497E1"
     d="M222.532 580.744C225.316 579.794 228.339 581.299 229.261 584.092C230.183 586.886 228.648 589.894 225.846 590.788C223.082 591.67 220.125 590.161 219.216 587.407C218.307 584.652 219.786 581.68 222.532 580.744Z"
     id="path2701" />
  <path
     fill="#5B309B"
     d="M800.667 429.249C802.323 428.665 804.164 429.02 805.484 430.177C806.804 431.333 807.398 433.112 807.037 434.83C806.676 436.547 805.416 437.937 803.742 438.464C801.214 439.261 798.513 437.883 797.674 435.368C796.835 432.854 798.167 430.13 800.667 429.249Z"
     id="path2703" />
  <path
     fill="#5B309B"
     d="M187.701 441.678C190.201 440.935 192.832 442.351 193.589 444.847C194.346 447.344 192.945 449.983 190.454 450.754C187.942 451.532 185.277 450.117 184.513 447.601C183.75 445.084 185.18 442.427 187.701 441.678Z"
     id="path2705" />
  <path
     fill="#5B309B"
     d="M343.659 258.24C346.127 257.54 348.697 258.963 349.412 261.426C350.128 263.889 348.721 266.468 346.262 267.199C343.782 267.936 341.176 266.514 340.454 264.029C339.732 261.544 341.17 258.947 343.659 258.24Z"
     id="path2707" />
  <path
     fill="#5B309B"
     d="M353.217 643.686C355.526 643.595 357.486 645.363 357.633 647.669C357.779 649.975 356.06 651.978 353.758 652.181C352.218 652.317 350.725 651.608 349.858 650.328C348.991 649.048 348.886 647.399 349.584 646.019C350.281 644.639 351.672 643.746 353.217 643.686Z"
     id="path2709" />
  <path
     fill="#FEFEFE"
     fill-opacity="0.015686275"
     d="M333.358 508.494L335.103 509.234L334.955 509.993L335.039 510.191C331.703 511.511 328.441 513.012 325.073 514.35C327.77 512.367 330.612 510.422 333.358 508.494Z"
     id="path2711" />
</svg>
