<?xml version="1.0" encoding="UTF-8" standalone="no"?>
<svg
   width="716.26978"
   height="701.52167"
   viewBox="0 0 716.26978 701.52167"
   version="1.1"
   id="svg3736"
   sodipodi:docname="congratulations.svg"
   inkscape:version="1.2.2 (b0a8486541, 2022-12-01)"
   xmlns:inkscape="http://www.inkscape.org/namespaces/inkscape"
   xmlns:sodipodi="http://sodipodi.sourceforge.net/DTD/sodipodi-0.dtd"
   xmlns="http://www.w3.org/2000/svg"
   xmlns:svg="http://www.w3.org/2000/svg">
  <sodipodi:namedview
     id="namedview3738"
     pagecolor="#ffffff"
     bordercolor="#000000"
     borderopacity="0.25"
     inkscape:showpageshadow="2"
     inkscape:pageopacity="0.0"
     inkscape:pagecheckerboard="0"
     inkscape:deskcolor="#d1d1d1"
     showgrid="false"
     inkscape:zoom="0.80761719"
     inkscape:cx="360.31923"
     inkscape:cy="346.69891"
     inkscape:window-width="1854"
     inkscape:window-height="1009"
     inkscape:window-x="66"
     inkscape:window-y="32"
     inkscape:window-maximized="1"
     inkscape:current-layer="svg3736" />
  <path
     fill="#5b309b"
     d="m 226.41676,308.021 c -1.539,-9.517 -2.286,-25.173 -2.738,-35.082 -1.61,-31.825 -1.022,-63.723 1.759,-95.468 0.579,-6.489 4.757,-64.993 16.14,-60.796 29.321,10.812 60.744,45.621 78.069,70.856 5.234,-1.904 12.898,-3.262 18.489,-4.295 29.612,-5.473 56.326,-2.489 85.373,4.901 4.108,-5.029 8.18,-10.86 12.436,-16.131 10.112,-12.56 21.212,-24.292 33.193,-35.084 6.932,-6.153 24.442,-20.342 34.022,-19.555 7.865,0.645 11.132,27.273 12.01,34.197 5.015,39.533 6.743,79.823 5.224,119.651 -0.431,11.043 -0.724,23.772 -2.405,34.438 6.685,-0.857 9.977,-1.272 16.638,-0.654 -5.49,1.622 -11.723,2.778 -17.379,3.994 -0.678,4.373 -1.569,7.696 -2.69,11.946 2.73,0.438 8.731,1.305 10.544,3.29 l -0.497,0.574 c -3.228,0.577 -7.876,-0.084 -11.088,-0.789 -1.358,3.568 -3.594,10.109 -5.959,12.97 3.17,0.556 5.489,1.654 8.479,2.778 16.587,-16.278 35.628,-47.69 59.486,-48.343 26.063,-0.712 27.244,26.822 17.493,44.53 -14.238,25.858 -31.306,45.569 -49.327,68.249 l -30.417,38.773 c -4.298,5.378 -19.775,23.877 -20.504,29.791 -2.523,20.475 4.111,48.536 5.814,69.257 0.934,11.353 1.215,22.848 1.513,33.56 14.64,0.058 27.934,-3.781 38.741,-13.902 27.669,-25.647 11.357,-60.372 12.085,-93.086 0.546,-24.508 16.51,-61.814 46.232,-61.592 4.436,0.033 10.015,3.207 12.694,6.794 14.549,19.477 -11.113,36.144 -17.248,53.053 -2.737,7.861 -4.839,19.74 -3.779,28.087 4.593,36.147 10.606,62.946 -22.084,89.406 -19.122,15.197 -43.439,22.293 -67.733,19.766 -1.578,24.893 -7.862,65.316 -25.559,83.962 -5.686,5.991 -12.872,9.18 -21.4,9.209 -19.505,0.121 -17.155,-25.474 -21.931,-38.67 -7.312,-20.199 -18.364,-23.016 -38.166,-23.172 l -15.332,-0.198 c -30.995,-0.27 -33.072,17.791 -36.845,43.788 -1.977,13.626 -6.132,22.96 -22.341,22.48 -18.082,-0.536 -28.226,-20.154 -34.444,-34.714 -16.001,-37.471 -23.644,-80.69 -20.158,-121.372 1.912,-23.702 8.447,-46.085 10.253,-69.554 -5.589,-4.682 -13.234,-5.893 -20.242,-8.317 -30.285,-10.475 -55.786,-22.008 -73.422,-50.323 30.497,9.637 64.759,-5.714 52.381,-42.501 18.952,13.745 36.641,22.258 58.527,9.51 -3.968,-2.455 -11.382,-5.808 -15.945,-8.371 -16.167,-9.081 -24.564,-18.205 -35.559,-32.398 -5.863,2.361 -9.664,3.557 -15.897,4.624 4.556,-3.239 8.557,-5.533 13.87,-7.234 -2.051,-4.101 -3.931,-8.891 -5.716,-13.161 -5.574,0.8 -11.958,1.604 -17.545,1.649 5.362,-2.04 10.798,-3.15 16.381,-4.336 -1.123,-4.104 -2.491,-9.443 -3.124,-13.594 -5.719,-0.854 -11.391,-1.662 -17.071,-2.752 4.841,-0.698 11.921,-1.197 16.699,-0.639 z m 287.839,34.103 c -2.587,-0.764 -5.102,-1.93 -7.592,-2.993 -8.983,12.96 -14.116,19.637 -26.768,30.002 -4.795,3.93 -22.804,12.77 -23.659,15.501 1.765,5.295 11.009,-1.4 13.991,-3.298 16.617,-10.575 30.918,-24.625 44.028,-39.212 z m -71.509,43.061 c 2.975,-0.976 5.625,-1.665 8.298,-3.287 0.334,-0.963 0.334,-0.574 0.285,-1.13 -2.337,0.742 -7.32,2.01 -8.672,3.911 z"
     id="path3344" />
  <path
     fill="#fefefe"
     d="m 436.00476,236.394 c 21.559,-2.608 41.146,12.767 43.733,34.33 2.586,21.562 -12.81,41.133 -34.375,43.697 -21.533,2.561 -41.07,-12.808 -43.652,-34.339 -2.583,-21.531 12.765,-41.083 34.294,-43.688 z"
     id="path3346" />
  <path
     fill="#5b309b"
     d="m 434.25276,247.412 c 14.944,-2.624 29.175,7.399 31.739,22.354 2.563,14.955 -7.518,29.145 -22.483,31.648 -14.88,2.488 -28.971,-7.523 -31.519,-22.392 -2.549,-14.869 7.404,-29.001 22.263,-31.61 z"
     id="path3348" />
  <path
     fill="#fefefe"
     d="m 448.16976,253.438 c 3.967,-0.577 7.659,2.146 8.28,6.106 0.621,3.961 -2.061,7.683 -6.014,8.347 -2.597,0.437 -5.227,-0.556 -6.888,-2.598 -1.661,-2.043 -2.097,-4.821 -1.14,-7.274 0.956,-2.452 3.157,-4.202 5.762,-4.581 z"
     id="path3350" />
  <path
     fill="#fefefe"
     d="m 299.72176,235.78 c 35.401,-2.85 55.056,36.689 36.797,65.466 -5.534,8.721 -16.003,12.728 -25.906,14.386 -8.561,-0.106 -16.034,-1.816 -23.374,-6.386 -10.064,-6.347 -17.147,-16.479 -19.65,-28.111 -5.355,-24.451 8.857,-40.575 32.133,-45.355 z"
     id="path3352" />
  <path
     fill="#5b309b"
     d="m 304.05876,247.35 c 14.932,-1.856 28.539,8.754 30.38,23.688 1.842,14.935 -8.781,28.531 -23.717,30.358 -14.917,1.825 -28.491,-8.78 -30.33,-23.695 -1.838,-14.914 8.754,-28.499 23.667,-30.351 z"
     id="path3354" />
  <path
     fill="#fefefe"
     d="m 315.50476,253.948 c 2.587,-0.627 5.311,0.19 7.126,2.138 1.814,1.947 2.437,4.723 1.628,7.259 -0.809,2.536 -2.923,4.438 -5.53,4.976 -3.936,0.812 -7.796,-1.681 -8.676,-5.602 -0.879,-3.921 1.547,-7.824 5.452,-8.771 z"
     id="path3356" />
  <path
     fill="#f2e4f4"
     d="m 467.24176,181.511 c 3.934,-9.756 22.634,-45.527 32.236,-47.739 4.33,1.899 4.648,18.354 4.792,23.044 0.715,23.31 2.402,52.446 -4.452,74.888 -3.947,-4.213 -8.067,-8.514 -11.931,-12.786 1.621,-1.16 3.391,-2.375 4.947,-3.599 -5.201,0.084 -11.098,0.045 -16.236,0.377 3.409,-2.317 13.72,-5.64 18.166,-7.257 -6.567,1.05 -13.104,2.28 -19.604,3.687 4.437,-3.897 8.853,-7.05 13.604,-10.536 -8.666,2.738 -15.095,6.019 -23.231,9.887 6.871,-6.839 13.35,-10.085 19.316,-17.711 -3.332,2.137 -8.851,5.899 -12.183,7.67 l -1.178,-3.996 -0.017,-0.212 -0.669,-0.99 c -3.665,2.148 -8.002,6.249 -11.227,9.174 2.008,-4.213 5.399,-9.595 7.835,-13.712 l -0.807,-0.232 c -1.254,0.155 -1.165,0.13 -2.306,-0.441 l -0.322,-1.066 c 0.572,-2.933 2.186,-4.726 4.224,-6.832 -1.035,-0.791 -0.666,-0.298 -0.957,-1.618 z"
     id="path3358" />
  <path
     fill="#d4a9e7"
     d="m 482.85376,173.175 c -4.349,6.898 -10.75,11.95 -15.444,18.525 l -0.807,-0.232 c 3.37,-6.137 10.822,-13.826 16.251,-18.293 z"
     id="path3360" />
  <path
     fill="#c497e1"
     d="m 470.80176,196.238 c 2.737,-2.505 9.244,-8.596 12.258,-9.881 -2.191,3.026 -8.496,8.235 -11.589,10.871 z"
     id="path3362" />
  <path
     fill="#c497e1"
     d="m 467.24176,181.511 c 3.887,-1.309 7.912,-7.375 11.809,-9.172 l 0.323,0.298 c -2.051,2.731 -8.434,8.201 -11.175,10.492 -1.035,-0.791 -0.666,-0.298 -0.957,-1.618 z"
     id="path3364" />
  <path
     fill="#ddbdea"
     d="m 491.67776,147.081 0.398,0.077 0.088,0.603 c -1.785,2.288 -3.638,3.84 -5.771,5.788 l -0.554,0.023 -0.131,-0.58 c 1.828,-2.479 3.663,-3.894 5.97,-5.911 z"
     id="path3366" />
  <path
     fill="#f2e4f4"
     d="m 244.37976,230.299 c -0.2,-0.785 -0.385,-1.574 -0.554,-2.366 -3.479,-15.857 -7.953,-82.302 -1.016,-93.175 7.688,-4.632 23.354,25.391 26.396,31.691 l 0.598,0.733 c 1.074,2.044 2.847,5.66 4.006,7.503 l 0.69,1.647 2.75,5.706 c 1.701,3.251 3.111,4.989 2.581,8.607 -0.247,0.367 -0.838,1.29 -1.097,1.598 -2.089,0.14 -3.158,1.391 -4.51,2.919 l -0.691,0.566 -1.722,2.311 c -1.34,1.123 -1.354,1.332 -3.113,1.521 -1.543,-0.675 -2.463,-1.313 -4.076,-0.983 1.352,1.86 1.403,1.473 2.103,3.705 -0.825,3.31 -3.254,2.686 -6.01,2.144 l 0.474,0.717 -0.362,-0.667 0.834,0.204 -0.038,0.847 c 3.615,3.074 7.172,6.215 10.671,9.419 -7.7,-2.259 -15.071,-4.94 -22.882,-6.7 3.885,2.193 7.988,4.17 12.001,6.446 -2.364,0.838 -3.25,0.823 -4.533,2.855 -3.181,5.036 -8.037,9.09 -12.5,12.752 z"
     id="path3368" />
  <path
     fill="#d4a9e7"
     d="m 277.24976,182.038 c 1.701,3.251 3.111,4.989 2.581,8.607 -0.247,0.367 -0.838,1.29 -1.097,1.598 -2.089,0.14 -3.158,1.391 -4.51,2.919 l -0.691,0.566 c -1.21,-0.777 -4.406,-1.786 -5.901,-2.312 3.11,-3.315 6.658,-7.821 9.618,-11.378 z"
     id="path3370" />
  <path
     fill="#c497e1"
     d="m 273.80976,174.685 0.69,1.647 c -4.123,4.521 -7.113,7.201 -11.979,10.86 2.984,-3.751 7.798,-9.355 11.289,-12.507 z"
     id="path3372" />
  <path
     fill="#b07fd2"
     d="m 269.20576,166.449 0.598,0.733 c -2.37,3.298 -5.739,6.302 -8.815,8.911 0.273,-1.839 6.712,-8.144 8.217,-9.644 z"
     id="path3374" />
  <path
     fill="#b07fd2"
     d="m 261.06176,156.132 c 0.613,2.219 -4.284,6.992 -5.788,8.679 l -0.205,-0.814 c 0.625,-2.704 4.035,-5.872 5.993,-7.865 z"
     id="path3376" />
  <path
     fill="#d4a9e7"
     d="m 256.39276,149.736 c 0.068,0.227 0.136,0.453 0.203,0.679 -1.154,2.62 -2.746,4.347 -4.544,6.542 l -0.463,-0.53 c 0.51,-2.299 3.159,-4.948 4.804,-6.691 z"
     id="path3378" />
  <path
     fill="#fefefe"
     d="m 375.61976,315.738 c 13.204,18.163 19.129,-0.396 25.178,-0.244 l 0.321,1.091 c -0.652,3.559 -2.986,5.523 -5.454,8.109 -0.708,11.457 -2.965,40.064 -21.911,39.057 -9.987,-0.531 -17.829,-15.456 -19.553,-24.056 -0.874,-4.363 -1.617,-9.414 -2.225,-14.188 -2.57,-2.445 -4.828,-4.319 -5.933,-7.766 0.232,-1.738 -0.189,-1.181 0.823,-2.087 3.372,1.632 6.33,5.533 10.239,7.505 6.923,3.491 11.8,-0.557 14.981,-7.043 1.414,-0.223 2.065,-0.309 3.534,-0.378 z"
     id="path3380" />
  <path
     fill="#ddbdea"
     d="m 374.11076,321.785 c 7.191,5.306 9.195,5.724 17.944,4.802 -0.634,5.046 -1.197,9.24 -2.188,14.262 -3.033,7.598 -7.334,22.582 -18.956,17.5 -5.346,-2.338 -9.733,-10.838 -11.775,-16.132 -1.429,-4.911 -1.978,-9.238 -2.309,-14.318 8.662,0.045 10.444,-1.105 17.284,-6.114 z"
     id="path3382" />
  <path
     fill="#5b309b"
     d="m 374.11076,321.785 c 7.191,5.306 9.195,5.724 17.944,4.802 -0.634,5.046 -1.197,9.24 -2.188,14.262 -12.579,-4.261 -18.759,-5.935 -30.731,1.368 -1.429,-4.911 -1.978,-9.238 -2.309,-14.318 8.662,0.045 10.444,-1.105 17.284,-6.114 z"
     id="path3384" />
  <path
     fill="#f2e4f4"
     d="m 558.68676,322.253 c 5.176,-0.505 9.764,0.064 13.169,4.495 1.896,2.427 2.698,5.533 2.217,8.575 -0.782,4.649 -3.254,6.562 -6.803,8.995 -5.591,2.342 -17.596,-8.655 -14.926,-15.43 1.679,-4.261 2.71,-4.461 6.343,-6.635 z"
     id="path3386" />
  <path
     fill="#ddbdea"
     d="m 372.08576,316.116 c -2.334,-1.828 -9.284,-7.096 -9.281,-9.881 0.008,-6.66 18.553,-5.69 21.032,-1.945 2.151,3.247 -6.306,9.409 -8.217,11.448 -1.469,0.069 -2.12,0.155 -3.534,0.378 z"
     id="path3388" />
  <path
     fill="#fefefe"
     d="m 579.44476,304.592 c 10.479,1.242 4.762,8.974 -0.6,12.683 -10.653,-0.558 -4.751,-8.974 0.6,-12.683 z"
     id="path3390" />
  <path
     fill="#f2e4f4"
     d="m 561.48876,303.485 c 9.424,0.745 4.659,7.672 0.468,11.578 -2,0.043 -1.91,0.088 -3.743,-0.664 -3.416,-3.818 0.55,-7.966 3.275,-10.914 z"
     id="path3392" />
  <path
     fill="#f2e4f4"
     d="m 585.16576,321.048 c 8.507,0.567 4.943,7.067 0.37,10.525 -2.231,-0.013 -2.154,0.07 -4.097,-0.937 -2.811,-3.975 0.714,-7.17 3.727,-9.588 z"
     id="path3394" />
  <path
     fill="#f2e4f4"
     d="m 329.62676,628.042 c 3.083,0.071 21.135,3.331 23.124,5.338 -8.395,1.12 -16.225,-0.225 -23.124,-5.338 z"
     id="path3396" />
  <path
     fill="#f2e4f4"
     d="m 271.81076,198.039 c 5.016,-0.827 8.629,5.838 9.404,10.002 -3.343,-1.618 -8.272,-4.355 -9.717,-7.868 0.077,-0.564 0.189,-1.615 0.313,-2.134 z"
     id="path3398" />
  <path
     fill="#f2e4f4"
     d="m 433.79676,627.24 c 0.586,0.008 0.227,-0.051 1.003,0.429 l -0.271,0.906 c -3.812,2.866 -9.799,4.2 -14.462,4.92 -0.772,-0.119 -0.589,-0.155 -1.316,-0.677 l 0.478,-0.848 c 3.791,-2.172 10.278,-3.645 14.568,-4.73 z"
     id="path3400" />
  <path
     fill="#f2e4f4"
     d="m 274.22376,195.162 c 1.352,-1.528 2.421,-2.779 4.51,-2.919 2.06,5.072 4.195,10.114 6.405,15.122 -3.37,-4.003 -7.14,-8.644 -10.915,-12.203 z"
     id="path3402" />
  <path
     fill="#fefefe"
     d="m 485.11676,445.044 c 2.407,3.536 1.914,16.905 1.66,21.225 -3.944,-3.726 -2.094,-15.894 -1.66,-21.225 z"
     id="path3404" />
  <path
     fill="#ddbdea"
     d="m 246.83676,303.8 c 7.806,-0.174 15.886,2.456 21.944,7.425 -4.04,-0.643 -17.862,-5.751 -21.944,-7.425 z"
     id="path3406" />
  <path
     fill="#fefefe"
     d="m 466.62876,672.965 0.653,0.632 c 1.746,5.574 0.223,11.157 -2.369,16.207 l -0.487,0.029 c -1.21,-2.193 1.551,-14.013 2.203,-16.868 z"
     id="path3408" />
  <path
     fill="#fefefe"
     d="m 325.59676,677.961 c 2.702,2.516 2.84,14.289 2.763,18.114 -3.503,-6.521 -4.066,-10.91 -2.763,-18.114 z"
     id="path3410" />
  <path
     fill="#fefefe"
     d="m 305.59176,679.591 c 1.923,2.859 4.787,13.383 5.879,17.139 -5.768,-2.953 -6.127,-11.451 -5.879,-17.139 z"
     id="path3412" />
  <path
     fill="#f2e4f4"
     d="m 478.57076,327.248 c 5.993,0.168 15.492,4.145 20.749,6.865 -6.739,-0.395 -15.078,-3.261 -20.749,-6.865 z"
     id="path3414" />
  <path
     fill="#fefefe"
     d="m 264.48476,330.064 0.202,0.163 c -1.575,2.94 -13.564,6.671 -17.127,7.897 -0.375,-0.252 -0.163,-0.059 -0.454,-0.73 4.418,-4.384 12.185,-4.935 17.379,-7.33 z"
     id="path3416" />
  <path
     fill="#fefefe"
     d="m 446.50276,674.858 0.919,0.722 c 2.259,4.614 1.354,9.571 0.667,14.488 -0.339,0.386 -0.101,0.19 -0.819,0.432 -1.365,-2.603 -0.826,-12.234 -0.767,-15.642 z"
     id="path3418" />
  <path
     fill="#ddbdea"
     d="m 497.72576,304.693 1.175,0.08 c -1.842,2.042 -15.502,5.966 -18.735,6.867 -0.742,0.047 -0.311,0.092 -1.251,-0.351 1.093,-1.68 16.085,-5.773 18.811,-6.596 z"
     id="path3420" />
  <path
     fill="#ddbdea"
     d="m 486.50976,318.879 c 5.396,-0.64 13.579,-0.331 18.553,2.128 -4.848,0.584 -14.04,0.005 -18.553,-2.128 z"
     id="path3422" />
  <path
     fill="#fefefe"
     d="m 278.15276,457.963 0.553,0.514 c 1.043,3.708 -0.917,9.85 -2.341,13.399 l -0.631,-0.621 c -1.205,-4.357 0.812,-9.231 2.419,-13.292 z"
     id="path3424" />
  <path
     fill="#ddbdea"
     d="m 471.48776,197.44 1.178,3.996 c -2.715,1.841 -6.683,3.85 -9.655,5.46 2.85,-3.429 5.217,-6.367 8.477,-9.456 z"
     id="path3426" />
  <path
     fill="#ddbdea"
     d="m 495.12776,301.279 c 0.251,10e-4 1.126,0.226 1.411,0.291 -1.096,1.93 -10.359,4.392 -13.541,5.611 l -0.761,0.31 -0.287,-0.316 c 3.35,-2.907 8.816,-5.182 13.178,-5.896 z"
     id="path3428" />
  <path
     fill="#f2e4f4"
     d="m 256.52476,321.937 0.192,0.394 c -1.956,1.468 -10.248,2.164 -13.211,2.529 -0.451,-0.47 -0.282,-0.165 -0.355,-0.981 2.621,-1.754 9.936,-1.766 13.374,-1.942 z"
     id="path3430" />
  <path
     fill="#f2e4f4"
     d="m 304.26476,385.622 c 4.685,0.785 6.934,1.873 10.727,4.533 -4.937,-0.063 -7.709,-0.543 -10.727,-4.533 z"
     id="path3432" />
  <path
     fill="#f2e4f4"
     d="m 503.55276,308.788 c 1.496,-0.164 1.948,-0.129 3.415,-0.067 l -0.049,0.482 c -3.218,1.353 -4.4,1.439 -7.835,1.961 -1.062,0.103 -1.98,0.131 -3.046,0.166 l -0.137,-0.438 c 2.549,-1.198 4.912,-1.551 7.652,-2.104 z"
     id="path3434" />
  <path
     fill="#fefefe"
     d="m 234.07776,311.356 c 4.652,-0.291 8.5,-0.38 12.219,2.725 -4.87,-0.454 -7.663,-0.879 -12.219,-2.725 z"
     id="path3436" />
  <path
     fill="#d4a9e7"
     d="m 247.28976,307.638 c 5.357,0.355 8.705,1.897 13.5,4.01 -3.909,0.079 -9.957,-2.407 -13.5,-4.01 z"
     id="path3438" />
  <path
     fill="#a771cf"
     d="m 450.84076,180.065 c 0.112,3.106 -2.084,7.1 -3.632,9.745 -0.528,-2.638 2.339,-7.323 3.632,-9.745 z"
     id="path3440" />
  <path
     fill="#a771cf"
     d="m 582.99676,454.257 -0.172,0.845 c -1.586,1.795 -2.706,2.112 -4.898,3.139 l -0.05,-0.478 c 1.189,-1.499 3.399,-2.526 5.12,-3.506 z"
     id="path3442" />
  <path
     fill="#a771cf"
     d="m 250.74576,258.586 0.383,0.484 c 0.061,1.644 -0.855,3.212 -1.552,4.758 l -0.574,-0.709 c 0.186,-2.035 0.732,-2.682 1.743,-4.533 z"
     id="path3444" />
  <path
     fill="#a771cf"
     d="m 485.00176,580.96 0.535,0.407 c 0.791,1.488 0.51,3.258 0.447,5.002 -1.52,-1.615 -1.08,-3.301 -0.982,-5.409 z"
     id="path3446" />
  <path
     fill="#5b309b"
     d="m 147.58276,422.591 c 10.403,-0.937 21.018,27.989 20.054,37.275 -1.189,11.465 -4.132,16.967 -12.308,24.615 0.181,11.613 -1.027,15.608 -5.68,25.837 2.922,5.418 4.258,7.371 9.481,10.433 4.705,-2.3 6.404,-3.243 11.478,-4.446 1.197,0.348 6.515,2.547 6.86,2.485 9.192,-1.662 7.964,-1.838 13.812,7.747 -5.946,6.001 -15.47,13.442 -22.114,18.738 -8.159,6.504 -17.535,14.133 -26.089,19.893 -1.906,-1.889 -5.858,-5.924 -6.646,-8.57 -0.503,-1.689 1.86,-4.229 2.365,-5.912 0.958,-3.158 -0.828,-6.803 0.692,-9.914 3.021,-6.187 6.155,-5.707 3.994,-13.185 -2.14,-3.417 -3.72,-4.524 -6.898,-6.779 -8.631,1.873 -17.146,2.324 -25.69,-0.167 -7.465,4.114 -15.706002,9.001 -26.020002,7.703 -9.074,-1.142 -34.161,-15.135 -33.437,-26.657 0.233,-3.705 12.235,-10.795 16.348,-13.366 -2.791,-3.049 -4.432,-4.979 -6.169,-8.709 6.191,-9.286 50.698002,-44.536 61.871002,-51.311 4.252,2.315 5.547,3.953 8.525,7.597 5.637,-5.823 9.159,-8.566 15.571,-13.307 z m -82.768002,80.73 c 6.785,7.385 14.425,12.843 24.755,13.416 3.26,-0.507 5.192,-0.734 8.309,-1.832 -4.086,-2.959 -20.723,-16.522 -23.937,-17.881 -2.938,1.939 -6.427,4.119 -9.127,6.297 z m 74.274002,-58.444 c 4.752,8.048 7.998,14.792 11.857,23.3 0.802,1.743 0.596,2.173 1.918,2.777 6.104,-4.892 1.182,-28.592 -5.462,-33.404 -3.624,2.803 -5.332,3.941 -8.313,7.327 z"
     id="path3448" />
  <path
     fill="#d4a9e7"
     d="m 122.32376,433.274 c 6.673,0.62 18.939,23.828 21.787,29.365 6.848,13.308 11.261,29.149 3.222,43.226 l -1.429,3.884 c 6.906,23.228 17.168,8.65 26.278,11.061 l 0.458,0.795 c -1.439,5.334 -25.582,23.092 -31.485,25.516 4.029,-13.078 14.504,-20.59 -5.113,-30.03 -6.052,1.348 -11.224,2.049 -17.471,1.363 -19.287002,-2.117 -40.963002,-23.309 -52.568002,-38.179 14.452,-13.448 30.098,-25.943 45.534002,-38.253 3.625,-2.891 7.347,-5.633 10.787,-8.748 z"
     id="path3450" />
  <path
     fill="#ddbdea"
     d="m 122.32376,433.274 c 6.673,0.62 18.939,23.828 21.787,29.365 6.848,13.308 11.261,29.149 3.222,43.226 -3.443,-2.767 -1.832,-4.471 -2.708,-8.599 -0.359,-6.244 -0.316,-11.65 -0.869,-18.107 -0.74,-2.835 -5.485,-15.548 -5.518,-16.761 1.409,0.184 1.005,0.392 2.025,-0.066 -0.416,-1.112 -4.419,-6.509 -5.508,-8.34 -2.082,-0.796 -8.067,-10.59 -10.231,-13.444 l -0.352,0.551 -0.756,-1.894 c -0.672,-1.406 -1.35,-4.359 -1.092,-5.931 z"
     id="path3452" />
  <path
     fill="#f2e4f4"
     d="m 143.75576,479.159 1.072,-0.177 c 1.901,1.401 2.508,2.901 1.748,5.286 -0.046,2.963 -0.103,3.892 0.51,6.847 0.121,2.25 -0.279,4.965 -2.461,6.151 -0.359,-6.244 -0.316,-11.65 -0.869,-18.107 z"
     id="path3454" />
  <path
     fill="#b07fd2"
     d="m 124.52376,440.548 0.546,-0.474 c 3.766,2.325 7.755,9.941 9.685,13.918 -2.082,-0.796 -8.067,-10.59 -10.231,-13.444 z"
     id="path3456" />
  <path
     fill="#a771cf"
     d="m 146.57576,484.268 c 2.105,1.033 1.807,5.183 0.51,6.847 -0.613,-2.955 -0.556,-3.884 -0.51,-6.847 z"
     id="path3458" />
  <path
     fill="#f2e4f4"
     d="m 123.41576,439.205 0.756,1.894 c 0.028,5.084 1.268,17.83 0.502,22.051 -1.712,-2.701 -1.433,-19.867 -1.258,-23.945 z"
     id="path3460" />
  <path
     fill="#5b309b"
     d="m 116.01076,472.342 c 4.443,-4.033 9.085,-7.841 13.908,-11.412 -0.345,6.264 -1.399,11.848 -2.475,17.999 2.746,2.178 6.988,4.63 10.071,6.53 l 0.583,0.39 2.142,2.27 -0.134,0.768 c -3.465,1.831 -12.276,2.289 -16.446,2.558 -1.476,5.294 -3.24,12.332 -5.599,17.14 -1.614,-3.919 -5.434,-15.889 -9.594,-16.176 l -0.994,-0.061 c -3.535,-0.294 -9.950002,0.38 -12.440002,-1.817 l 0.143,-1.031 c 2.356,-2.513 7.929002,-6.344 10.908002,-8.532 -1.228,-3.167 -6.298002,-13.51 -3.375,-15.653 3.31,0.1 10.203,5.054 13.302,7.027 z"
     id="path3462" />
  <path
     fill="#a771cf"
     d="m 116.82176,475.632 c 3.381,-3.434 5.521,-5.232 9.394,-8.195 -0.405,4.037 -1.157,8.254 -1.5,12.086 3.255,4.037 5.393,5.21 9.758,7.926 -13.277,1.312 -13.39,1.284 -16.528,14.27 -2.217,-3.841 -3.586,-7.736 -5.776,-11.538 -2.861,-0.005 -7.186,0.137 -9.863,-0.4 l -0.938,-0.318 -0.027,-0.854 c 1.467,-2.238 3.953,-4.099 6.032,-5.884 1.885,-3.486 -1.619,-10.745 -3.044,-14.342 4.099,2.354 8.491,4.775 12.492,7.249 z"
     id="path3464" />
  <path
     fill="#c497e1"
     d="m 107.37376,482.725 c 0.15,2.068 0.651,4.633 -0.367,6.285 -1.563,1.024 -2.796,0.783 -4.7,0.771 l -0.938,-0.318 -0.027,-0.854 c 1.467,-2.238 3.953,-4.099 6.032,-5.884 z"
     id="path3466" />
  <path
     fill="#c497e1"
     d="m 70.296758,480.239 c 1.831,-2.207 3.639,-4.811 6.374,-5.628 l 1.042,0.288 c 0.655,2.233 1.556,9.949 0.131,11.796 l -1.701,-2.511 -2.249,0.18 z"
     id="path3468" />
  <path
     fill="#ddbdea"
     d="m 76.670758,474.611 1.042,0.288 c 0.655,2.233 1.556,9.949 0.131,11.796 l -1.701,-2.511 c 0.019,-4.516 -0.436,-4.998 0.528,-9.573 z"
     id="path3470" />
  <path
     fill="#ddbdea"
     d="m 137.51476,485.459 c -1.514,-6.336 -2.546,-11.118 -2.873,-17.62 l 0.354,-0.218 -0.238,-0.755 -0.096,0.66 0.191,-0.764 c 1.137,3.377 4.13,15.266 3.758,18.426 l -0.513,0.661 z"
     id="path3472" />
  <path
     fill="#f2e4f4"
     d="m 86.645758,468.548 0.511,0.45 c 1.788,4.215 1.368,15.94 1.059,20.718 -1.6,-2.401 -1.569,-17.545 -1.57,-21.168 z"
     id="path3474" />
  <path
     fill="#5b309b"
     d="m 109.40976,510.596 c 0.667,-1.947 0.291,-1.918 1.641,-2.813 1.65,1.197 1.512,3.245 1.495,5.15 1.576,0.471 1.876,0.571 3.427,1.327 -3.225,0.541 -10.679,-3.318 -13.574,-5.089 2.882,0.599 3.882,1.021 6.567,2.102 z"
     id="path3476" />
  <path
     fill="#c497e1"
     d="m 109.40976,510.596 c 0.667,-1.947 0.291,-1.918 1.641,-2.813 1.65,1.197 1.512,3.245 1.495,5.15 -0.946,-0.367 -2.603,-1.202 -3.58,-1.66 z"
     id="path3478" />
  <path
     fill="#a771cf"
     d="m 73.893758,484.364 2.249,-0.18 1.701,2.511 c 2.418,3.614 5.901,4.506 9.421,10.869 -4.579,-3.949 -9.879,-8.317 -13.371,-13.2 z"
     id="path3480" />
  <path
     fill="#f2e4f4"
     d="m 107.47276,492.348 0.994,0.061 c 0.296,4.303 1.205,14.378 0.943,18.187 -2.203,-2.936 -2.011,-14.434 -1.937,-18.248 z"
     id="path3482" />
  <path
     fill="#f2e4f4"
     d="m 113.62576,445.037 c 1.827,2.043 0.652,13.816 0.238,16.849 -1.45,-3.783 -1.302,-13.071 -0.238,-16.849 z"
     id="path3484" />
  <path
     fill="#a771cf"
     d="m 90.563758,462.685 0.136,0.468 c -0.733,2.356 -6.676,6.134 -8.818,7.621 l -0.074,-0.524 c 1.049,-2.08 6.674,-6.033 8.756,-7.565 z"
     id="path3486" />
  <path
     fill="#f2e4f4"
     d="m 104.70376,453.066 0.546,0.661 c 0.511,3.766 0.498,7.584 -0.038,11.346 -1.862,-2.896 -0.977,-8.748 -0.508,-12.007 z"
     id="path3488" />
  <path
     fill="#a771cf"
     d="m 90.905758,500.019 c 2.616,0.671 5.182,3.463 7.136,5.353 -3.737,-1.089 -4.695,-2.39 -7.136,-5.353 z"
     id="path3490" />
  <path
     fill="#d4a9e7"
     d="m 57.373758,499.754 c 2.223,-1.758 4.415,-3.555 6.574,-5.389 1.013,1.128 2.22,2.545 3.277,3.584 -1.672,1.178 -4.541,2.905 -4.585,5 -0.212,9.953 19.804,16.306 26.953,17.013 5.55,-0.27 7.581,-1.052 12.521002,-3.588 l 5.348,2.668 c -3.182,1.753 -6.341,3.529 -9.901002,4.41 -15.507,5.763 -29.053,-5.157 -39.347,-15.206 -1.693,-1.709 -2.997,-2.855 -3.163,-5.28 0.451,-1.743 0.988,-2.009 2.323,-3.212 z"
     id="path3492" />
  <path
     fill="#c497e1"
     d="m 102.11376,516.374 5.348,2.668 c -3.182,1.753 -6.341,3.529 -9.901002,4.41 -2.783,-3.37 -5.186,-2.225 -7.968,-3.49 5.55,-0.27 7.581,-1.052 12.521002,-3.588 z"
     id="path3494" />
  <path
     fill="#ddbdea"
     d="m 57.373758,499.754 c 1.544,2.891 2.266,5.39 0.84,8.492 -1.693,-1.709 -2.997,-2.855 -3.163,-5.28 0.451,-1.743 0.988,-2.009 2.323,-3.212 z"
     id="path3496" />
  <path
     fill="#a771cf"
     d="m 76.038758,519.127 c 3.293,0.323 7.365,1.943 10.589,3.061 -4.513,0.183 -6.819,-0.813 -10.589,-3.061 z"
     id="path3498" />
  <defs
     id="defs3505">
    <linearGradient
       id="gradient_0"
       gradientUnits="userSpaceOnUse"
       x1="291.24374"
       y1="615.21021"
       x2="314.58832"
       y2="617.52521"
       gradientTransform="translate(-150.53024,-165.825)">
      <stop
         offset="0"
         stop-color="#C5A3E3"
         id="stop3500" />
      <stop
         offset="1"
         stop-color="#EACAF2"
         id="stop3502" />
    </linearGradient>
  </defs>
  <path
     fill="url(#gradient_0)"
     d="m 141.44476,431.876 c 2.914,-2.643 4.247,-3.677 7.512,-5.877 11.986,12.552 20.712,32.753 10.498,48.964 -0.862,1.532 -3.691,4.965 -4.891,6.501 l -1.234,-5.998 c 7.765,-10.303 6.629,-19.251 2.766,-30.669 -1.465,-3.048 -2.838,-5.155 -4.647,-8.005 -1.136,-1.025 -1.773,-1.532 -3.007,-2.446 -1.624,-0.32 -2.04,0.049 -3.545,0.75 -1.817,-1.199 -2.008,-1.527 -3.452,-3.22 z"
     id="path3507"
     style="fill:url(#gradient_0)" />
  <path
     fill="#ddbdea"
     d="m 156.27576,442.051 c 5.594,9.456 5.498,14.856 3.061,25.299 -0.264,1.133 -1.149,5.063 -1.033,6.121 l 1.151,1.492 c -0.862,1.532 -3.691,4.965 -4.891,6.501 l -1.234,-5.998 c 7.765,-10.303 6.629,-19.251 2.766,-30.669 z"
     id="path3509" />
  <path
     fill="#a771cf"
     d="m 153.43776,436.911 -0.628,-1.975 0.485,-0.107 c 7.122,8.421 13.315,29.557 5.009,38.642 -0.116,-1.058 0.769,-4.988 1.033,-6.121 2.437,-10.443 2.533,-15.843 -3.061,-25.299 l -0.18,2.746 c -1.465,-3.048 -2.838,-5.155 -4.647,-8.005 z"
     id="path3511" />
  <path
     fill="#ddbdea"
     d="m 151.44876,436.792 1.989,0.119 c 0.941,1.621 2.076,3.453 2.838,5.14 l -0.18,2.746 c -1.465,-3.048 -2.838,-5.155 -4.647,-8.005 z"
     id="path3513" />
  <path
     fill="#d4a9e7"
     d="m 181.25676,520.555 c 1.753,1.672 3.44,2.561 4.548,4.698 -0.152,1.862 -0.268,1.381 -2.099,3.099 -6.952,6.25 -15.483,13.291 -23.111,18.709 l -3.453,2.67 c -1.015,-3.401 0.164,-4.762 -0.981,-8.461 8.436,-6.82 16.801,-13.725 25.096,-20.715 z"
     id="path3515" />
  <path
     fill="#ddbdea"
     d="m 181.25676,520.555 c 1.753,1.672 3.44,2.561 4.548,4.698 -0.152,1.862 -0.268,1.381 -2.099,3.099 -1.054,-1.223 -1.058,-1.01 -1.67,-2.443 l -0.882,-0.24 c -5.244,3.673 -19.225,11.539 -20.791,17.983 -0.091,0.377 0.165,2.792 0.232,3.409 l -3.453,2.67 c -1.015,-3.401 0.164,-4.762 -0.981,-8.461 8.436,-6.82 16.801,-13.725 25.096,-20.715 z"
     id="path3517" />
  <path
     fill="#d4a9e7"
     d="m 156.16076,541.27 c 1.145,3.699 -0.034,5.06 0.981,8.461 -4.152,3.946 -8.564,7.61 -13.205,10.967 -0.637,-0.727 -2.037,-2.416 -2.665,-3.023 -0.713,-1.49 -0.913,-1.574 -0.702,-3.229 0.745,-1.63 1.815,-2.154 3.286,-3.212 3.391,-3.141 8.557,-6.934 12.305,-9.964 z"
     id="path3519" />
  <path
     fill="#ddbdea"
     d="m 141.27176,557.675 c -0.713,-1.49 -0.913,-1.574 -0.702,-3.229 0.745,-1.63 1.815,-2.154 3.286,-3.212 0.515,3.094 -0.272,4.413 -2.584,6.441 z"
     id="path3521" />
  <path
     fill="#d4a9e7"
     d="m 133.62576,438.832 c 2.385,-2.276 5.317,-4.746 7.819,-6.956 1.444,1.693 1.635,2.021 3.452,3.22 -2.715,2.319 -5.464,5.128 -8.033,7.649 z"
     id="path3523" />
  <path
     fill="#ddbdea"
     d="m 63.947758,494.365 c 2.599,-1.931 4.764,-3.857 7.816,-1.612 0.429,2.971 -2.219,3.98 -4.539,5.196 -1.057,-1.039 -2.264,-2.456 -3.277,-3.584 z"
     id="path3525" />
  <path
     fill="#5b309b"
     d="m 385.82376,4.432 c 5.703,-0.125 21.949,-1.315 26.875,1.191 2.254,1.147 2.622,6.958 2.953,9.639 3.813,-0.881 17.418,-2.315 19.75,-0.261 8.594,7.569 -1.283,31.07 -6.662,37.978 -7.043,9.046 -14.138,10.343 -24.007,11.662 -5.94,8.761 -12.18,9.792 -18.199,17.407 -1.066,1.592 -1.928,4.563 -1.248,6.396 2.051,5.526 9.081,5.336 13.833,8.113 l 2.439,4.084 c 8.627,3.173 8.167,6.146 7.197,14.708 -10.294,1.805 -28.061,1.865 -39.026,2.15 -6.42,-0.117 -13.514,0.105 -19.981,0.173 -0.621,-8.704 -1.863,-10.55 6.221,-14.444 3.73,-8.871 6.122,-5.967 13.853,-9.963 1.474,-0.762 1.999,-2.943 2.133,-4.679 0.67,-8.659 -8.875,-10.452 -14.394,-15.175 -3.032,-2.594 -4.264,-4.027 -6.903,-6.995 -25.035,-2.086 -33.286,-17.2 -36.177,-40.869 -1.319,-10.802 15.358,-8.81 22.154,-8.56 -0.105,-2.389 -0.503,-6.492 1.185,-8.399 3.491,-3.944 40.278,-3.935 48.004,-4.156 z m 24.267,48.221 c 2.099,-0.658 3.418,-0.998 5.371,-2.033 8.435,-7.01 11.059,-14.353 11.292,-25.11 -1.349,0.064 -4.942,0.141 -6.098,0.34 -1.941,0.2 -3.301,0.136 -4.927,1.18 -0.977,2.479 -1.602,7.815 -2.107,10.719 -0.951,5.456 -1.809,9.61 -3.531,14.904 z m -65.56,2.675 c -3.364,-10.193 -5.068,-16.614 -7.309,-27.106 l -10.894,-0.147 c 1.296,9.489 2.736,16.842 11.024,23.1 2.423,1.829 4.797,2.652 7.179,4.153 z"
     id="path3527" />
  <path
     fill="#d4a9e7"
     d="m 340.44276,10.8 c 13.218,-1.424 27.618,-1.951 40.92,-2.347 8.513,-0.253 20.733,-0.765 29.146,0.13 3.263,15.329 0.009,39.796 -8.431,53.478 -5.745,9.314 -11.809,10.726 -18.808,16.715 -6.244,21.722 7.988,14.162 14.465,22.728 -1.327,2.393 -33.308,3.414 -37.296,1.458 l -0.471,-0.836 c 3.006,-5.688 22.513,-1.841 13.075,-23.013 -3.623,-3.141 -9.191,-4.747 -11.265,-6.95 l -3.252,-2.364 c -8.323,-7.163 -12.996,-21.467 -15.341,-31.773 -2.059,-9.733 -2.713,-17.348 -2.742,-27.226 z"
     id="path3529" />
  <path
     fill="#ddbdea"
     d="m 343.18476,38.026 c 1.434,-0.578 1.406,-0.46 2.972,-0.243 3.014,2.487 1.815,8.45 3.131,10.914 2.217,6.486 4.165,10.434 8.533,15.809 l 0.312,0.668 0.393,4.625 c -8.323,-7.163 -12.996,-21.467 -15.341,-31.773 z"
     id="path3531" />
  <path
     fill="#a771cf"
     d="m 349.28776,48.697 0.747,-0.084 c 1.817,2.446 7.73,13.278 7.786,15.893 -4.368,-5.375 -6.316,-9.323 -8.533,-15.809 z"
     id="path3533" />
  <path
     fill="#f2e4f4"
     d="m 358.13276,65.174 c 2.253,-0.157 1.973,-0.52 3.32,0.514 0.401,2.433 0.058,3.846 0.325,6.475 l -3.252,-2.364 z"
     id="path3535" />
  <path
     fill="#5b309b"
     d="m 375.74076,19.348 c 3.242,1.673 5.897,10.682 7.188,14.346 5.541,-0.303 11.088,-0.465 16.637,-0.486 -3.147,4.302 -8.066,8.368 -12.155,11.84 1.851,5.42 3.495,11.066 5.166,16.556 -5.272,-2.873 -10.222,-6.17 -15.267,-9.422 -2.586,1.237 -11.821,8.793 -14.938,10.985 1.495,-5.913 3.136,-11.788 4.921,-17.62 -4.949,-3.647 -8.677,-5.921 -12.29,-10.954 4.653,-0.546 11.344,-0.64 16.161,-0.85 1.178,-5.779 2.144,-9.053 4.577,-14.395 z"
     id="path3537" />
  <path
     fill="#a771cf"
     d="m 376.77176,23.599 c 1.491,3.448 3.647,9.021 5.278,12.173 4.795,-0.459 8.026,-0.612 12.842,-0.603 -2.815,2.494 -7.554,6.522 -9.906,9.298 0.969,3.846 1.814,7.242 2.523,11.137 -3.641,-2.305 -6.924,-4.414 -10.752,-6.426 -2.822,2.145 -6.443,5.071 -9.311,7.012 0.834,-3.127 3.239,-9.952 1.397,-12.668 -2.676,-1.928 -5.068,-4.101 -7.551,-6.27 l 7.96,-0.666 c 4.966,-2.09 5.94,-8.154 7.52,-12.987 z"
     id="path3539" />
  <path
     fill="#a771cf"
     d="m 361.29176,37.252 7.96,-0.666 c 0.236,2.698 0.37,4.3 -0.409,6.936 -2.676,-1.928 -5.068,-4.101 -7.551,-6.27 z"
     id="path3541" />
  <path
     fill="#f2e4f4"
     d="m 405.72176,35.521 c 0.925,3.862 -1.154,10.093 -2.452,13.814 -0.943,-3.482 1.295,-10.321 2.452,-13.814 z"
     id="path3543" />
  <path
     fill="#5b309b"
     d="m 358.68076,12.436 c 2.728,-0.19 8.917,-1.009 10.898,0.519 -2.14,0.212 -9.658,0.969 -10.898,-0.519 z"
     id="path3545" />
  <path
     fill="#b07fd2"
     d="m 390.71976,10.267 c 1.851,0.031 2.635,-0.147 4.143,0.91 l -0.329,0.562 -1.545,0.248 c -2.399,-0.061 -2.895,-0.031 -5.172,-0.623 0.616,-0.937 1.392,-0.77 2.903,-1.097 z"
     id="path3547" />
  <path
     fill="#5b309b"
     d="m 343.60176,18.559 c 1.579,1.378 1.374,7.128 1.336,9.287 -1.662,-3.025 -1.456,-5.909 -1.336,-9.287 z"
     id="path3549" />
  <path
     fill="#a771cf"
     d="m 376.81976,85.426 0.895,0.93 c 0.653,2.317 0.302,3.74 0.037,6.132 -1.103,-2.188 -1.033,-4.695 -0.932,-7.062 z"
     id="path3551" />
  <path
     fill="#a771cf"
     d="m 389.92976,69.181 0.338,0.366 c -0.568,1.291 -2.763,2.355 -4.101,3.174 l -0.431,-0.504 c 0.875,-1.433 2.664,-2.184 4.194,-3.036 z"
     id="path3553" />
  <path
     fill="#a771cf"
     d="m 345.83076,13.433 c 2.678,-0.353 4.262,-0.616 6.701,0.496 -2.731,0.401 -4.204,0.617 -6.701,-0.496 z"
     id="path3555" />
  <path
     fill="#d4a9e7"
     d="m 352.94576,114.182 c -0.024,-2.161 -0.22,-3.558 0.56,-5.545 2.431,-1.89 45.14,-2.954 51.386,-2.999 l 0.392,6.999 c -6.904,-0.039 -14.011,0.573 -21.095,0.592 -4.178,0.541 -15.296,1.04 -19.523,0.854 -3.196,0.226 -8.374,0.083 -11.72,0.099 z"
     id="path3557" />
  <path
     fill="#c497e1"
     d="m 368.85476,110.593 0.782,0.021 c 4.675,0.102 10.7,-1.818 12.949,-0.136 -1.791,1.814 -4.56,-0.329 -5.627,1.697 l 0.6,0.826 c 2.443,-0.007 4.178,-0.03 6.63,0.228 -4.178,0.541 -15.296,1.04 -19.523,0.854 1.569,-0.39 3.808,-0.388 4.689,-1.374 l -0.432,-1.596 z"
     id="path3559" />
  <path
     fill="#a771cf"
     d="m 368.92276,111.113 c -1.768,0.088 -7.441,0.462 -8.832,-0.163 3.394,-1.284 5.219,-0.816 8.764,-0.357 z"
     id="path3561" />
  <path
     fill="#d4a9e7"
     d="m 420.36676,17.808 c 3.395,-0.189 9.684,-0.872 12.544,0.415 6.29,6.439 -2.142,26.549 -6.745,32.807 -4.95,6.73 -11.829,9.031 -19.616,10.377 1.895,-6.586 4.054,-4.981 9.527,-7.722 7.888,-3.95 15.599,-21.237 13.411,-29.4 -3.653,-3.196 -13.784,0.133 -14.578,-3.825 1.268,-2.389 2.96,-2.237 5.457,-2.652 z"
     id="path3563" />
  <path
     fill="#a771cf"
     d="m 423.80276,50.163 0.372,0.626 c -1.108,1.674 -3.124,2.895 -4.792,4.103 l -0.271,-0.133 c 0.271,-1.316 3.356,-3.464 4.691,-4.596 z"
     id="path3565" />
  <path
     fill="#d4a9e7"
     d="m 327.94276,20.382 c 3.157,-0.17 5.83,-0.169 8.742,1.082 0.971,1.968 0.951,1.06 0.701,2.812 -3.158,3.179 -12.767,-1.29 -13.684,2.992 -0.781,3.643 1.135,10.335 2.566,13.899 4.245,10.572 10.605,14.455 20.665,18.542 1.192,0.814 1.246,1.441 1.43,2.664 -0.832,0.797 -0.597,0.765 -1.776,0.711 -15.974,-0.736 -25.333,-16.108 -27.527,-30.413 -0.622,-4.061 -0.646,-7.255 -0.573,-11.343 3.101,-0.499 6.317,-0.691 9.456,-0.946 z"
     id="path3567" />
  <path
     fill="#5b309b"
     d="m 226.71376,375.124 c 0.834,1.941 1.52,3.758 2.097,5.788 1.829,6.22 0.966,12.921 -2.378,18.476 -10.252,17.276 -38.751,19.782 -54.477,9.898 -15.476,-9.728 -18.435,-33.642 -11.012,-49.059 4.135,-8.587 9.489,-11.5 9.432,-22.337 -0.058,-10.769 -5.605,-23.476 0.123,-33.254 4.396,-7.361 15.32,-8.293 21.556,-3.293 9.004,7.22 9.879,25.851 11.496,36.842 -7.583,-0.052 -13.98,0.786 -20.723,4.484 -2.746,1.928 -5.588,3.873 -8.285,5.856 3.368,-1.338 6.63,-2.839 9.966,-4.159 24.551,-6.161 47.546,0.203 42.205,30.758 z"
     id="path3569" />
  <path
     fill="#5b309b"
     d="m 614.89476,134.3 c 3.104,1.656 4.304,11.577 5.035,15.129 0.908,4.452 2.102,8.84 3.574,13.138 2.091,6.257 4.934,12.237 8.467,17.809 9.189,14.261 19.958,19.853 36.007,23.245 -8.095,2.386 -16.76,4.882 -23.537,10.043 -18.516,14.104 -21.559,33.219 -24.82,54.273 -0.969,-0.224 -1.151,0.006 -1.518,-1.252 -0.936,-3.482 -1.674,-7.086 -2.452,-10.614 -5.942,-26.936 -20.759,-45.489 -48.719,-51.498 5.748,-2.312 9.865,-3.052 15.862,-6.211 18.019,-9.02 24.769,-26.805 28.509,-45.47 1.149,-5.731 1.744,-13.047 3.592,-18.592 z m -36.473,69.388 c 19.65,8.603 27.37,16.554 35.648,36.961 0.963,2.375 3.536,11.682 4.661,12.721 1.358,-8.106 4.925,-17.359 8.45,-24.785 5.566,-11.725 16.474,-20.298 28.652,-24.746 -14.218,-4.409 -22.528,-12.54 -29.436,-25.601 -2.242,-4.253 -4.112,-8.693 -5.589,-13.268 -1.111,-3.398 -3.935,-15.134 -5.318,-17.022 -7.106,28.857 -8.837,41.448 -37.068,55.74 z"
     id="path3571" />
  <path
     fill="#5b309b"
     d="m 17.826758,118.387 c 15.879,-0.387 24.33,3.784 34.597,15.673 16.995,19.68 -2.568,40.772 4.571,59.928 1.712,1.662 2.787,2.186 4.83,3.404 4.153,-7.296 11.085,-15.062 20.452,-12.002 3.639,1.196 6.614,3.857 8.204,7.342 1.432,3.097 2.101,8.283 0.639,11.39 -4.099,8.71 -14.887,6.473 -19.714,8.263 0.158,1.236 1.25,1.721 2.513,2.469 11.907,7.044 28.210002,0.63 38.119002,12.211 6.238,7.292 9.885,22.869 9.099,32.143 -0.614,3.235 -1.519,10.335 -5.205,10.958 -3.277,-1.532 -5.783,-8.417 -7.208,-11.789 14.759,-30.594 -19.659002,-17.316 -34.581002,-27.387 -9.143,-6.171 -9.691,-11.762 -12.33,-21.748 -3.648,-3.53 -7.812,-6.674 -11.197,-10.325 -10.091,-10.76 -10.815,-25.277 -7.874,-39.018 1.148,-5.365 5.631,-18.28 0.723,-22.011 -8.605,-6.543 -24.718,-1.38 -34.7000001,-1.086 l -0.778,0.018 c -15.987,-15.322 -5.509,-16.918 9.8400001,-18.433 z"
     id="path3573" />
  <path
     fill="#a771cf"
     d="m 48.483758,133.736 c 16.541,20.03 1.928,32.666 3.893,54.446 1.082,11.99 16.401,16.225 26.544,14.776 2.277,2.198 3.19,2.583 3.976,5.542 -10.825,3.729 -20.756,-1.119 -28.316,-8.644 -14.964,-14.895 -9.964,-34.464 -6.601,-52.943 0.684,-3.758 0.533,-9.262 0.504,-13.177 z"
     id="path3575" />
  <path
     fill="#c497e1"
     d="m 49.081758,162.986 c 1.858,1.557 0.491,13.867 -0.093,16.39 -1.778,-3.938 -0.778,-12.105 0.093,-16.39 z"
     id="path3577" />
  <path
     fill="#b07fd2"
     d="m 65.993758,213.854 c 8.603,5.205 10.669,5.793 20.272,7.726 l 0.509,0.079 c 16.246002,-0.652 24.440002,5.987 29.547002,20.91 -2.045,-2.065 -4.85,-4.834 -7.438,-5.951 -18.672002,-8.055 -35.537002,3.591 -42.890002,-22.764 z"
     id="path3579" />
  <path
     fill="#ddbdea"
     d="m 86.265758,221.58 0.509,0.079 c 1.111,1.561 2.664,3.574 2.689,5.442 -2.141,-0.859 -2.88,-2.607 -3.783,-4.654 z"
     id="path3581" />
  <path
     fill="#a771cf"
     d="m 1.8447579,122.965 c 11.5000001,-1.446 29.4920001,-3.696 38.7730001,4.701 1.395,1.533 3.743,4.108 3.512,6.304 -1.384,0.286 -0.67,0.248 -2.291,-0.541 -11.301,-1.818 -21.396,-0.302 -32.6560001,0.953 -2.641,-3.835 -4.901,-7.467 -7.338,-11.417 z"
     id="path3583" />
  <path
     fill="#ddbdea"
     d="m 41.838758,133.429 c -0.168,-0.319 -0.331,-0.641 -0.489,-0.964 -0.903,-1.856 -1.413,-2.836 -0.732,-4.799 1.395,1.533 3.743,4.108 3.512,6.304 -1.384,0.286 -0.67,0.248 -2.291,-0.541 z"
     id="path3585" />
  <path
     fill="#c497e1"
     d="m 75.667758,187.718 c 2.183,-0.03 6.511,-0.398 7.333,2.038 -2.052,3.591 -7.318,3.52 -11.984,8.599 l -0.458,0.507 c -1.606,2.039 -2.772,2.051 -4.876,0.772 -1.952,-5.456 5.884,-9.956 9.985,-11.916 z"
     id="path3587" />
  <path
     fill="#c497e1"
     d="m 78.920758,202.958 c 6.024,-3.859 5.975,-4.988 7.113,-12.028 3.978,7.774 5.96,13.009 -3.137,17.57 -0.786,-2.959 -1.699,-3.344 -3.976,-5.542 z"
     id="path3589" />
  <path
     fill="#b07fd2"
     d="m 111.50376,258.516 c 1.087,-2.677 2.51,-7.94 5.704,-8.1 2.146,1.99 1.649,6.386 1.679,9.215 -0.485,1.587 -0.898,3.105 -1.571,4.624 -0.13,0.383 -0.492,0.906 -0.718,1.28 -2.361,-0.795 -3.88,-4.659 -5.094,-7.019 z"
     id="path3591" />
  <path
     fill="#c497e1"
     d="m 117.31576,264.255 c -1.193,-2.252 -0.895,-3.237 -0.016,-5.443 l 0.793,-0.318 0.794,1.137 c -0.485,1.587 -0.898,3.105 -1.571,4.624 z"
     id="path3593" />
  <path
     fill="#fefefe"
     d="m 80.625758,195.06 c 0.399,0.155 0.705,0.512 1.064,0.831 l -0.16,1.078 c -1.753,2.381 -4.159,3.387 -6.92,4.195 l -0.876,-0.182 -0.161,-0.725 c 1.443,-2.466 4.556,-3.908 7.053,-5.197 z"
     id="path3595" />
  <path
     fill="#5b309b"
     d="m 667.61876,10.885 c 2.5,-0.422 3.899,-0.521 5.457,1.474 0.968,4.796 -2.747,10.574 -5.049,14.967 -16.816,3.406 -46.413,6.149 -52.319,25.864 11.465,1.126 39.66,1.769 27.224,22.298 -5.618,9.273 -18.796,7.286 -26.037,1.299 -3.408,-2.818 -6.345,-7.034 -10.005,-9.646 -5.219,1.798 -5.131,10.338 -3.94,14.729 1.853,2.018 6.604,1.606 9.386,1.689 13.699,0.408 21.754,11.956 9.058,22.354 -10.76,5.603 -18.131,-2.053 -24.839,-9.47 -13.48,6.183 -15.036,14.969 -20.85,26.889 l -0.578,0.136 c -2.227,-3.684 -1.019,-13.876 0.21,-18.071 2.898,-9.885 8.947,-14.823 17.563,-19.574 -0.235,-14.855 1.575,-20.822 14.078,-29.739 5.861,-31.861 30.848,-42.639 60.641,-45.199 z"
     id="path3597" />
  <path
     fill="#a771cf"
     d="m 632.45176,32.46 c -7.371,4.518 -9.651,5.364 -15.64,11.491 l -0.622,-0.232 c -1.02,-3 0.953,-6.065 2.773,-8.319 13.333,-16.516 31.654,-20.071 51.802,-21.732 -1.613,3.417 -3.002,7.336 -4.35,10.899 -12.525,2.315 -18.784,3.638 -31.189,6.889 z"
     id="path3599" />
  <path
     fill="#ddbdea"
     d="m 632.45176,32.46 c 0.941,-1.824 2.006,-3.646 4.077,-4.321 0.214,1.445 -0.351,1.69 -1.303,3.317 z"
     id="path3601" />
  <path
     fill="#ddbdea"
     d="m 665.01176,17.781 0.254,0.234 -0.101,0.796 c -2.871,2.172 -8.246,3.335 -11.753,4.217 -0.168,-0.154 -0.115,-0.441 -0.149,-0.666 3.591,-2.272 7.672,-3.506 11.749,-4.581 z"
     id="path3603" />
  <path
     fill="#b07fd2"
     d="m 606.25776,86.386 c 4.537,-0.463 18.36,1.71 17.509,7.963 l -1.141,0.72 c -5.056,0.563 -7.502,-1.832 -12.051,-3.16 -6.709,-1.96 -14.501,1.319 -20.285,4.539 -4.192,2.781 -9.968,10.27 -11.642,10.594 -0.793,-2.609 1.834,-7.346 3.531,-9.277 6.251,-7.118 14.83,-10.653 24.079,-11.379 z"
     id="path3605" />
  <path
     fill="#a771cf"
     d="m 614.23176,56.916 c 10.363,-0.751 23.38,-0.397 29.597,9.402 -1.276,1.696 -2.28,3.135 -3.796,4.638 -7.388,-7.219 -11.993,-9.002 -22.327,-8.87 l -1.009,0.015 c 0.058,-2.426 0.758,-2.724 -0.125,-4.538 z"
     id="path3607" />
  <path
     fill="#b07fd2"
     d="m 612.35976,65.534 c 8.907,1.083 8.646,9.337 24.481,9.139 1.461,-1.094 2.52,-1.768 4.079,-2.727 l 0.313,0.355 -1.303,1.697 c -2.321,2.483 -3.392,3.265 -6.322,4.933 -8.241,-0.223 -20.183,-3.651 -21.248,-13.397 z"
     id="path3609" />
  <path
     fill="#b07fd2"
     d="m 604.82676,100.774 c -1.999,-1.854 -3.739,-2.832 -3.366,-5.759 l 0.929,-0.573 c 1.81,0.303 2.003,0.628 3.366,1.813 6.914,4.563 8.337,6.041 16.348,2.827 l 0.522,0.412 c -2.59,6.742 -13.66,6.055 -17.799,1.28 z"
     id="path3611" />
  <path
     fill="#c497e1"
     d="m 604.82676,100.774 c -1.999,-1.854 -3.739,-2.832 -3.366,-5.759 l 0.929,-0.573 c 1.81,0.303 2.003,0.628 3.366,1.813 0.58,2.212 0.961,2.104 0.274,3.767 z"
     id="path3613" />
  <path
     fill="#b07fd2"
     d="m 597.94076,68.737 c 4.468,-7.363 8.314,-9.79 16.291,-11.821 l 2.34,0.647 c 0.883,1.814 0.183,2.112 0.125,4.538 -8.223,1.143 -11.395,2.683 -18.756,6.636 z"
     id="path3615" />
  <path
     fill="#b07fd2"
     d="m 598.56376,73.484 c 1.284,1.808 2.403,7.114 1.974,9.431 -0.295,1.591 -1.09,1.704 -2.469,2.601 -4.566,-2.094 -1.052,-8.865 0.495,-12.032 z"
     id="path3617" />
  <path
     fill="#b07fd2"
     d="m 612.28276,49.281 0.839,0.326 c 2.109,2.625 0.837,4.137 -1.337,5.9 -1.252,-0.566 -0.693,-0.191 -1.536,-1.337 0.013,-2.087 0.887,-3.013 2.034,-4.889 z"
     id="path3619" />
  <path
     fill="#5b309b"
     d="m 713.62276,234.172 c 1.099,-0.07 1.134,-0.011 2.243,0.133 l 0.404,0.881 c -0.935,18.158 -20.332,15.696 -29.823,28.503 6.839,15.963 20.599,14.59 25.738,25.402 9.132,19.213 -18.599,24.326 -30.796,25.037 -8.883,0.519 -19.247,3.313 -26.439,6.176 -10.068,4.009 0.127,14.761 2.802,19.944 8.753,17.476 -0.477,29.486 -15.39,37.887 -2.468,1.349 -6.945,4.015 -9.588,3.281 -0.796,-1.102 -0.945,-1.615 -1.118,-2.771 -2.861,-19.128 9.229,-12.148 17.84,-21.237 2.311,-6.35 -8.104,-14.264 -8.469,-20.94 -1.922,-35.203 30.432,-36.156 53.661,-40.535 -6.848,-4.871 -13.559,-9.098 -16.163,-17.714 -2.06,-6.813 -1.12,-15.557 2.368,-21.72 7.452,-13.164 19.256,-18.115 32.73,-22.327 z"
     id="path3621" />
  <path
     fill="#d4a9e7"
     d="m 709.84276,293.672 0.402,0.478 c 0.407,1.502 0.096,2.739 -0.346,4.219 -2.547,9.189 -16.762,10.954 -24.992,11.687 -15.327,1.364 -23.291,3.097 -36.658,10.872 -0.466,-0.501 -0.216,-0.143 -0.442,-1.232 5.47,-16.599 33.952,-17.731 47.669,-20.603 5.348,-1.12 9.542,-2.894 14.367,-5.421 z"
     id="path3623" />
  <path
     fill="#c497e1"
     d="m 691.66376,275.831 c 5.887,5.676 24.353,11.983 9.594,19.219 -5.789,-2.629 -8.438,-4.339 -13.517,-8.205 3.538,-5.439 1.713,-6.075 3.923,-11.014 z"
     id="path3625" />
  <path
     fill="#c497e1"
     d="m 656.82976,354.617 0.294,0.319 c 0.248,1.576 -0.464,4.014 -0.992,5.52 -3.268,9.319 -12.807,13.244 -20.969,17.209 -0.731,-0.771 -0.466,-0.375 -0.611,-1.608 -0.997,-8.529 9.982,-10.827 15.611,-15.138 3.445,-2.638 3.75,-2.939 6.667,-6.302 z"
     id="path3627" />
  <path
     fill="#c497e1"
     d="m 647.10276,326.59 c 3.112,7.137 7.784,14.074 10.134,20.946 -1.21,2.886 -1.728,3.786 -3.341,6.362 -6.301,-8.67 -14.22,-17.111 -6.793,-27.308 z"
     id="path3629" />
  <path
     fill="#d4a9e7"
     d="m 710.23976,238.088 0.735,0.007 0.273,0.745 c -0.977,2.785 -2.805,5.616 -4.311,8.206 -8.431,4.084 -11.23,4.847 -18.724,10.559 l -0.795,-0.056 c -1.681,-9.464 16.028,-16.738 22.822,-19.461 z"
     id="path3631" />
  <path
     fill="#d4a9e7"
     d="m 683.59376,259.689 c 0.983,7.723 2.897,10.787 8.07,16.142 -2.21,4.939 -0.385,5.575 -3.923,11.014 -9.672,-8.711 -7.975,-16.131 -4.147,-27.156 z"
     id="path3633" />
  <path
     fill="#5b309b"
     d="m 139.15076,78.041 c 2.215,2.236 5.206,21.129 6.782,25.767 6.885,20.263 14.087,30.787 36.219,34.111 -32.364,12.69 -32.544,24.981 -39.838,56.532 l -0.725,1.793 -0.552,0.141 c -2.291,-10.262 -4.641,-21.548 -8.555,-31.232 -6.387,-15.801 -15.162,-17.871 -29.39,-23.787 31.244,-10.435 28.956,-36.889 36.059,-63.325 z m -28.687,62.825 c 24.145,12.675 21.412,15.399 30.66,40.852 3.602,-15.259 8.804,-30.78 22.967,-39.663 1.598,-0.987 3.242,-1.896 4.926,-2.725 -15.168,-7.713 -19.874,-15.752 -25.453,-31.889 -0.976,-2.822 -3.672,-14.064 -4.534,-15.498 -4.006,19.675 -7.093,40.957 -28.566,48.923 z"
     id="path3635" />
  <path
     fill="#5b309b"
     d="m 57.860758,328.381 c 0.171,0.062 0.342,0.123 0.512,0.185 l 0.848,0.322 c 5.42,2.014 11.218,5.505 16.499,8.238 3.264,-1.743 11.613,-7.273 14.756,-5.272 1.297,3.356 -1.429,10.225 -2.673,13.754 4.667,4.145 10.385,9.306 13.617002,14.524 -6.610002,2.225 -14.427002,0.383 -17.436002,2.771 -2.015,4.269 -4.201,10.997 -7.315,14.154 -4.444,1.591 -7.71,-10.146 -9.053,-13.677 -3.64,-0.376 -15.948,-0.601 -16.872,-4.695 1.258,-3.53 8.179,-9.11 11.243,-11.952 -1.831,-6.197 -3.855,-11.886 -4.126,-18.352 z"
     id="path3637" />
  <path
     fill="#a771cf"
     d="m 61.698758,333.155 c 2.777,1.738 5.563,3.46 8.36,5.167 l 5.705,2.884 c 2.326,-1.466 4.094,-2.429 6.498,-3.68 l 5.742,-3.397 c -0.657,2.561 -1.294,5.219 -2.051,7.745 -0.247,2.014 -0.557,4.174 -0.693,6.187 3.787,4.214 7.026,6.356 10.905,10.03 -3.976,0.167 -9.643,0.673 -13.414,0.615 -3.138,5.413 -5.009,10.195 -7.366,15.969 -5.561,-14.029 -3.539,-14.484 -18.966,-15.7 -0.648,-0.198 -0.245,-0.039 -1.139,-0.626 0.968,-1.782 3.373,-3.369 5.053,-4.68 2.736,-4.559 5.611,-2.934 4.397,-10.287 -1.266,-3.013 -2.185,-7 -3.031,-10.227 z"
     id="path3639" />
  <path
     fill="#b07fd2"
     d="m 61.698758,333.155 c 2.777,1.738 5.563,3.46 8.36,5.167 -1.048,3.361 -1.421,4.819 -5.329,5.06 -1.266,-3.013 -2.185,-7 -3.031,-10.227 z"
     id="path3641" />
  <path
     fill="#d4a9e7"
     d="m 82.261758,337.526 5.742,-3.397 c -0.657,2.561 -1.294,5.219 -2.051,7.745 -1.612,-1.379 -2.442,-2.666 -3.691,-4.348 z"
     id="path3643" />
  <path
     fill="#ddbdea"
     d="m 60.332758,353.669 c -0.318,3.441 -1.032,3.352 -3.914,5.306 -0.648,-0.198 -0.245,-0.039 -1.139,-0.626 0.968,-1.782 3.373,-3.369 5.053,-4.68 z"
     id="path3645" />
  <path
     fill="#5b309b"
     d="m 648.33576,500.927 c 3.351,1.261 2.228,15.217 2.127,18.615 5.336,3.141 9.302,5.817 14.375,9.355 -5.272,2.369 -9.915,4.173 -15.549,5.555 -0.906,4.031 -1.523,15.176 -5.83,16.165 -2.953,-1.103 -8.606,-9.253 -11.638,-12.514 -3.719,0.737 -14.336,3.6 -16.713,0.487 0.058,-3.333 6.06,-10.757 8.277,-13.972 -1.4,-3.631 -7.376,-13.999 -4.304,-16.8 3.642,-0.707 11.305,2.475 15.096,3.825 4.448,-2.502 10.072,-7.382 14.159,-10.716 z"
     id="path3647" />
  <path
     fill="#a771cf"
     d="m 635.09176,516.043 c 3.902,-2.389 8.982,-7.335 12.486,-10.562 -0.043,4.293 -1.274,13.542 0.816,16.798 3.807,2.11 6.631,3.737 10.228,6.157 -4.582,1.285 -8.615,2.336 -13.036,4.165 -0.555,5.282 -1.132,9.754 -2.344,14.928 -3.112,-4.453 -6.463,-9.092 -10.048,-13.155 -2.375,0.503 -11.926,3.153 -13.324,1.426 l 1.225,-1.749 c 2.129,-2.725 4.234,-5.47 6.314,-8.234 -1.672,-5.098 -4.606,-10.046 -6.606,-15.458 4.657,2.139 9.491,3.879 14.289,5.684 z"
     id="path3649" />
  <path
     fill="#ddbdea"
     d="m 648.39376,522.279 c 0.176,2.969 -5.769,9.055 -8.078,10.818 1.108,-2.973 5.507,-9.113 8.078,-10.818 z"
     id="path3651" />
  <path
     fill="#5b309b"
     d="m 246.14176,0 c 2.956,4.034 2.68,13.939 2.89,19.2 5.944,2.487 9.209,4.233 14.548,7.823 -5.366,2.836 -9.043,4.352 -14.883,6.052 -0.051,4.488 -0.149,12.218 -2.205,16.096 -4.538,3.181 -8.803,-9.957 -14.292,-10.48 -3.352,0.965 -14.346,4.936 -16.521,1.602 0.089,-3.399 5.152,-10.447 7.18,-13.978 -2.885,-7.232 -5.344,-8.927 -7.419,-17.285 6.9,0.117 11.042,1.416 17.649,3.462 4.099,-3.45 8.283,-8.391 13.053,-12.492 z"
     id="path3653" />
  <path
     fill="#a771cf"
     d="m 242.75276,8.249 1.48,-1.521 0.784,0.068 c 1.505,2.501 0.987,9.781 0.934,13.074 3.397,2.973 7.878,4.908 11.951,6.878 -3.903,1.406 -8.789,3.019 -12.485,4.73 0.075,3.239 0.268,6.345 -0.224,9.547 -0.046,1.516 0.156,2.934 -0.746,4.025 -1.719,-0.582 -3.132,-3.006 -4.484,-4.702 -7.171,-7.1 -12.292,-4.219 -20.907,-1.847 2.441,-4.55 4.869,-8.576 7.531,-12.998 -2.565,-4.497 -5.134,-9.174 -7.955,-13.499 4.886,1.058 9.704,2.406 14.43,4.036 2.664,-2.104 5.004,-3.942 7.802,-5.861 z"
     id="path3655" />
  <path
     fill="#c497e1"
     d="m 239.96276,40.348 c 1.575,-0.786 2.287,-1.341 4.038,-1.222 1.184,0.989 0.791,0.382 1.192,1.899 -0.046,1.516 0.156,2.934 -0.746,4.025 -1.719,-0.582 -3.132,-3.006 -4.484,-4.702 z"
     id="path3657" />
  <path
     fill="#f2e4f4"
     d="m 239.84976,14.052 0.837,0.306 c -0.875,3.347 -2.274,8.441 -3.942,11.499 l -0.81,0.192 c 1.092,-4.057 2.064,-8.244 3.915,-11.997 z"
     id="path3659" />
  <path
     fill="#b07fd2"
     d="m 235.93476,26.049 0.81,-0.192 c -0.765,2.496 0.161,2.904 -1.78,5.813 l -0.597,0.022 c -0.111,-2.221 0.699,-3.575 1.567,-5.643 z"
     id="path3661" />
  <path
     fill="#c497e1"
     d="m 242.75276,8.249 c 0.471,1.533 -1.251,4.238 -2.066,6.109 l -0.837,-0.306 1.014,-3.873 z"
     id="path3663" />
  <path
     fill="#d4a9e7"
     d="m 245.79476,23.076 c 0.159,0.203 0.544,1.071 0.674,1.343 0.034,2.528 -5.455,8.164 -7.522,11.037 l -0.553,-0.754 c 0.102,-0.946 6.048,-9.311 7.401,-11.626 z"
     id="path3665" />
  <path
     fill="#5b309b"
     d="m 514.59576,10.553 c 3.298,3.673 6.163,10.486 8.291,15.121 24,-2.559 19.263,2.553 5.648,14.696 1.156,3.509 5.183,12.982 1.516,15.084 -3.941,-0.079 -6.746,-2.271 -10.185,-4.316 l -3.374,-1.982 c -3.199,2.116 -10.161,7.737 -13.643,5.287 -1.566,-3.444 0.156,-9.716 1.202,-13.323 -2.963,-2.289 -10.735,-7.145 -9.169,-11.161 3.079,-2.478 9.093,-2.555 13.219,-2.982 1.691,-5.463 3.348,-11.687 6.495,-16.424 z"
     id="path3667" />
  <defs
     id="defs3674">
    <linearGradient
       id="gradient_1"
       gradientUnits="userSpaceOnUse"
       x1="678.69934"
       y1="214.54015"
       x2="660.95715"
       y2="199.9639"
       gradientTransform="translate(-150.53024,-165.825)">
      <stop
         offset="0"
         stop-color="#9657C8"
         id="stop3669" />
      <stop
         offset="1"
         stop-color="#B583D6"
         id="stop3671" />
    </linearGradient>
  </defs>
  <path
     fill="url(#gradient_1)"
     d="m 496.76976,31.467 c 2.574,-0.21 6.591,-0.71 9.022,-0.919 6.497,-0.557 6.11,-10.557 9.654,-11.294 1.589,0.988 2.304,3.11 3.157,4.877 l 2.822,4.479 8.349,0.072 c 2.238,-0.016 2.787,-0.426 4.28,0.585 -0.22,2.202 -5.427,6.164 -7.436,8.303 -2.144,3.461 0.881,11.194 2.077,14.987 -3.997,-2.375 -8.074,-4.612 -12.225,-6.705 l -10.837,6.463 c 0.472,-3.076 1.17,-8.776 1.875,-11.61 -1.854,-2.185 -8.226,-7.187 -10.738,-9.238 z"
     id="path3676"
     style="fill:url(#gradient_1)" />
  <path
     fill="#a771cf"
     d="m 496.76976,31.467 c 2.574,-0.21 6.591,-0.71 9.022,-0.919 6.497,-0.557 6.11,-10.557 9.654,-11.294 1.589,0.988 2.304,3.11 3.157,4.877 -3.312,2.734 -9.446,12.576 -11.095,16.574 -1.854,-2.185 -8.226,-7.187 -10.738,-9.238 z"
     id="path3678" />
  <path
     fill="#b07fd2"
     d="m 529.77376,28.682 c 2.238,-0.016 2.787,-0.426 4.28,0.585 -0.22,2.202 -5.427,6.164 -7.436,8.303 -1.769,-3.627 0.962,-6.243 3.156,-8.888 z"
     id="path3680" />
  <path
     fill="#5b309b"
     d="m 178.56076,221.472 c 6.529,-2.006 13.444,1.676 15.425,8.212 1.982,6.536 -1.726,13.437 -8.269,15.394 -6.509,1.947 -13.366,-1.737 -15.337,-8.239 -1.971,-6.501 1.687,-13.372 8.181,-15.367 z"
     id="path3682" />
  <path
     fill="#a771cf"
     d="m 179.44476,224.389 c 4.861,-1.37 9.907,1.485 11.238,6.357 1.33,4.872 -1.564,9.895 -6.447,11.186 -4.827,1.277 -9.781,-1.578 -11.096,-6.395 -1.316,-4.817 1.499,-9.793 6.305,-11.148 z"
     id="path3684" />
  <path
     fill="#5b309b"
     d="m 694.46476,160.43 c 4.279,-1.2 8.872,0.001 12.017,3.142 3.144,3.14 4.35,7.732 3.155,12.013 -1.195,4.28 -4.605,7.583 -8.921,8.641 -6.523,1.6 -13.123,-2.328 -14.829,-8.823 -1.707,-6.496 2.111,-13.16 8.578,-14.973 z"
     id="path3686" />
  <path
     fill="#a771cf"
     d="m 694.91976,163.969 c 4.703,-1.59 9.805,0.927 11.404,5.627 1.599,4.7 -0.91,9.807 -5.607,11.414 -4.709,1.611 -9.831,-0.906 -11.434,-5.617 -1.602,-4.712 0.923,-9.83 5.637,-11.424 z"
     id="path3688" />
  <path
     fill="#5b309b"
     d="m 671.04876,427.379 c 6.622,-1.421 13.146,2.784 14.585,9.402 1.44,6.618 -2.747,13.153 -9.362,14.611 -6.639,1.463 -13.205,-2.744 -14.65,-9.388 -1.445,-6.643 2.78,-13.197 9.427,-14.625 z"
     id="path3690" />
  <path
     fill="#b07fd2"
     d="m 673.22376,430.399 c 3.256,-0.15 6.34,1.47 8.064,4.236 1.724,2.767 1.82,6.249 0.251,9.106 -1.569,2.857 -4.559,4.645 -7.819,4.674 -4.912,0.044 -8.955,-3.854 -9.09,-8.764 -0.135,-4.911 3.687,-9.025 8.594,-9.252 z"
     id="path3692" />
  <path
     fill="#5b309b"
     d="m 108.57776,35.93 c 5.801,-1.455 11.68,2.084 13.108,7.892 1.428,5.807 -2.138,11.669 -7.953,13.07 -5.776,1.392 -11.59,-2.146 -13.009,-7.915 -1.419002,-5.769 2.091,-11.601 7.854,-13.047 z"
     id="path3694" />
  <path
     fill="#b07fd2"
     d="m 108.69976,39.415 c 3.769,-1.394 7.963,0.467 9.458,4.197 1.496,3.73 -0.251,7.973 -3.939,9.569 -2.476,1.072 -5.339,0.714 -7.476,-0.933 -2.137,-1.648 -3.21,-4.326 -2.804,-6.993 0.407,-2.667 2.23,-4.904 4.761,-5.84 z"
     id="path3696" />
  <path
     fill="#5b309b"
     d="m 220.78176,531.312 c 3.023,-0.474 6.102,0.402 8.423,2.396 2.321,1.995 3.65,4.907 3.636,7.967 -0.025,5.232 -3.919,9.638 -9.108,10.305 -5.663,0.729 -10.86,-3.226 -11.667,-8.878 -0.807,-5.653 3.076,-10.904 8.716,-11.79 z"
     id="path3698" />
  <path
     fill="#a771cf"
     d="m 220.10876,534.355 c 3.708,-1.204 7.695,0.79 8.956,4.478 1.261,3.689 -0.672,7.706 -4.34,9.024 -2.424,0.87 -5.128,0.367 -7.077,-1.317 -1.949,-1.684 -2.839,-4.287 -2.329,-6.811 0.51,-2.525 2.341,-4.578 4.79,-5.374 z"
     id="path3700" />
  <path
     fill="#5b309b"
     d="m 389.23876,134.962 c 3.592,-0.894 7.386,0.218 9.928,2.908 2.543,2.69 3.438,6.541 2.343,10.076 -1.094,3.536 -4.009,6.207 -7.627,6.99 -5.475,1.185 -10.889,-2.243 -12.157,-7.7 -1.269,-5.457 2.076,-10.922 7.513,-12.274 z"
     id="path3702" />
  <path
     fill="#a771cf"
     d="m 388.86076,138.19 c 9.552,-0.307 13.823,6.175 5.322,12.797 -10.37,1.191 -13.47,-7.555 -5.322,-12.797 z"
     id="path3704" />
  <path
     fill="#5b309b"
     d="m 557.53776,237.373 c 5.053,-1.63 10.465,1.175 12.046,6.244 1.58,5.069 -1.279,10.453 -6.363,11.983 -5.014,1.508 -10.306,-1.302 -11.865,-6.3 -1.558,-4.998 1.2,-10.319 6.182,-11.927 z"
     id="path3706" />
  <path
     fill="#ddbdea"
     d="m 558.69676,240.374 c 3.318,-0.857 6.699,1.15 7.537,4.473 0.838,3.322 -1.189,6.692 -4.517,7.51 -3.3,0.812 -6.636,-1.194 -7.466,-4.49 -0.831,-3.295 1.155,-6.643 4.446,-7.493 z"
     id="path3708" />
  <path
     fill="#5b309b"
     d="m 520.64176,468.428 c 4.61,-1.021 9.203,1.784 10.4,6.351 1.198,4.566 -1.428,9.263 -5.945,10.636 -3.018,0.917 -6.296,0.146 -8.589,-2.021 -2.364,-2.234 -3.301,-5.591 -2.435,-8.726 0.866,-3.136 3.394,-5.536 6.569,-6.24 z"
     id="path3710" />
  <path
     fill="#c497e1"
     d="m 521.05076,471.364 c 2.761,-0.931 5.759,0.527 6.729,3.275 0.971,2.747 -0.445,5.765 -3.178,6.775 -1.803,0.666 -3.825,0.309 -5.292,-0.933 -1.467,-1.243 -2.151,-3.179 -1.79,-5.067 0.36,-1.888 1.71,-3.435 3.531,-4.05 z"
     id="path3712" />
  <path
     fill="#5b309b"
     d="m 279.66776,84.513 c 4.597,-1.42 9.473,1.169 10.87,5.773 1.398,4.604 -1.215,9.467 -5.826,10.842 -2.442,0.729 -5.082,0.347 -7.218,-1.044 -2.823,-1.837 -4.328,-5.141 -3.862,-8.477 0.466,-3.335 2.819,-6.1 6.036,-7.094 z"
     id="path3714" />
  <path
     fill="#a771cf"
     d="m 281.18976,87.4 c 2.814,-0.691 5.656,1.028 6.349,3.841 0.694,2.814 -1.024,5.657 -3.836,6.353 -2.816,0.696 -5.663,-1.023 -6.358,-3.84 -0.694,-2.816 1.028,-5.662 3.845,-6.354 z"
     id="path3716" />
  <path
     fill="#5b309b"
     d="m 540.42176,79.858 c 2.887,-0.989 6.083,-0.348 8.366,1.678 2.282,2.026 3.298,5.124 2.658,8.108 -0.64,2.984 -2.836,5.393 -5.749,6.306 -4.421,1.385 -9.134,-1.041 -10.577,-5.443 -1.444,-4.402 0.919,-9.147 5.302,-10.649 z"
     id="path3718" />
  <path
     fill="#d4a9e7"
     d="m 541.51876,82.915 c 1.705,-0.634 3.619,-0.292 4.999,0.893 1.379,1.186 2.006,3.027 1.635,4.808 -0.37,1.78 -1.679,3.219 -3.417,3.756 -2.584,0.798 -5.334,-0.604 -6.205,-3.165 -0.871,-2.56 0.453,-5.349 2.988,-6.292 z"
     id="path3720" />
  <path
     fill="#5b309b"
     d="m 71.324758,412.37 c 4.507,-1.256 9.174,1.401 10.395,5.918 1.22,4.518 -1.475,9.164 -6.002,10.348 -4.475,1.17 -9.058,-1.487 -10.264,-5.954 -1.207,-4.466 1.414,-9.07 5.871,-10.312 z"
     id="path3722" />
  <path
     fill="#c497e1"
     d="m 72.001758,414.919 c 2.784,-0.95 5.807,0.555 6.729,3.348 0.922,2.794 -0.613,5.802 -3.415,6.696 -2.764,0.882 -5.721,-0.627 -6.63,-3.381 -0.909,-2.755 0.57,-5.727 3.316,-6.663 z"
     id="path3724" />
  <path
     fill="#5b309b"
     d="m 650.13676,263.424 c 1.656,-0.584 3.497,-0.229 4.817,0.928 1.32,1.156 1.914,2.935 1.553,4.653 -0.361,1.717 -1.621,3.107 -3.295,3.634 -2.528,0.797 -5.229,-0.581 -6.068,-3.096 -0.839,-2.514 0.493,-5.238 2.993,-6.119 z"
     id="path3726" />
  <path
     fill="#5b309b"
     d="m 37.170758,275.853 c 2.5,-0.743 5.131,0.673 5.888,3.169 0.757,2.497 -0.644,5.136 -3.135,5.907 -2.512,0.778 -5.177,-0.637 -5.941,-3.153 -0.763,-2.517 0.667,-5.174 3.188,-5.923 z"
     id="path3728" />
  <path
     fill="#5b309b"
     d="m 193.12876,92.415 c 2.468,-0.7 5.038,0.723 5.753,3.186 0.716,2.463 -0.691,5.042 -3.15,5.773 -2.48,0.737 -5.086,-0.685 -5.808,-3.17 -0.722,-2.485 0.716,-5.082 3.205,-5.789 z"
     id="path3730" />
  <path
     fill="#5b309b"
     d="m 202.68676,477.861 c 2.309,-0.091 4.269,1.677 4.416,3.983 0.146,2.306 -1.573,4.309 -3.875,4.512 -1.54,0.136 -3.033,-0.573 -3.9,-1.853 -0.867,-1.28 -0.972,-2.929 -0.274,-4.309 0.697,-1.38 2.088,-2.273 3.633,-2.333 z"
     id="path3732" />
  <path
     fill="#fefefe"
     fill-opacity="0.0156863"
     d="m 182.82776,342.669 1.745,0.74 -0.148,0.759 0.084,0.198 c -3.336,1.32 -6.598,2.821 -9.966,4.159 2.697,-1.983 5.539,-3.928 8.285,-5.856 z"
     id="path3734" />
</svg>
